<svg xmlns="http://www.w3.org/2000/svg" width="240" height="240" viewBox="0 0 240 240"><g fill="none" stroke="#0f78ab" stroke-width="2" stroke-linecap="round" stroke-linejoin="round"><ellipse cx="54" cy="100" rx="15" ry="6"></ellipse><line x1="39" y1="100" x2="39" y2="140"></line><line x1="69" y1="100" x2="69" y2="140"></line><path d="M39 140 A 15 6 0 0 0 69 140"></path><rect x="96" y="106" width="46" height="28" rx="5"></rect><path d="M70 120 L94 120"></path><path d="M87.61 122.85 L94 120 L87.61 117.15"></path><circle cx="182" cy="86" r="13"></circle><circle cx="182" cy="154" r="13"></circle><path d="M142 116 L166 92"></path><path d="M163.5 98.54 L166 92 L159.46 94.5"></path><path d="M142 124 L166 148"></path><path d="M159.46 145.5 L166 148 L163.5 141.46"></path></g></svg>