<svg xmlns="http://www.w3.org/2000/svg" width="240" height="240" viewBox="0 0 240 240"><g fill="none" stroke="#0f78ab" stroke-width="2" stroke-linecap="round" stroke-linejoin="round"><rect x="28" y="54" width="184" height="132" rx="4"></rect><line x1="52" y1="54" x2="52" y2="186"></line><line x1="52" y1="120" x2="212" y2="120"></line><line x1="36" y1="96" x2="44" y2="96"></line><line x1="36" y1="108" x2="44" y2="108"></line><line x1="36" y1="150" x2="44" y2="150"></line><line x1="36" y1="162" x2="44" y2="162"></line><circle cx="70" cy="87" r="8.5"></circle><rect x="96" y="73" width="44" height="28" rx="5"></rect><path d="M172 75 L184 87 L172 99 L160 87 Z"></path><path d="M78.5 87 L95 87"></path><path d="M88.61 89.85 L95 87 L88.61 84.15"></path><path d="M140 87 L159 87"></path><path d="M152.61 89.85 L159 87 L152.61 84.15"></path><path d="M172 99 L172 153 L142 153"></path><path d="M150 153 L142 153"></path><path d="M147.48 150.55 L142 153 L147.48 155.45"></path><rect x="96" y="139" width="44" height="28" rx="5"></rect><circle cx="70" cy="153" r="9"></circle><circle cx="70" cy="153" r="4.5"></circle><path d="M96 153 L81 153"></path><path d="M87.39 150.15 L81 153 L87.39 155.85"></path></g></svg>