<svg xmlns="http://www.w3.org/2000/svg" width="460" height="630" viewBox="0 0 460 630">
<g fill="none" stroke="#0f78ab" stroke-width="1.5" stroke-linecap="round" stroke-linejoin="round"><path d="M275 267.7 L274.7 264.6 L274.5 261.5 L274.4 258.3 L274.6 255.2 L275.3 252 L276 250.4 L276.3 252 L276.7 255.2 L277 258.3 L277.2 261.5 L277.2 264.6 L277.2 267.7"></path><path d="M253.2 274 L253.8 270.9 L254.5 270.6 L257.6 270 L260.7 270.2 L263.7 270.8 L263.9 270.9 L266.8 272.2 L269.9 273.4 L270.6 274"></path><path d="M277.2 267.8 L277.4 270.9 L279.1 273.8 L279.6 274"></path><path d="M253.2 274.1 L254.5 275.2 L257.2 277.2 L257.6 277.3 L260.7 278.2 L263.7 278.6 L266.8 278.7 L269.9 278.6 L272.9 278.6 L274 277.2 L272.9 276 L270.6 274.1"></path><path d="M274.7 274.1 L276 275.2 L279.1 274.2 L279.6 274.1"></path><path d="M284.8 299.2 L283.3 296.1 L282.1 294.5 L281.6 293 L280.5 289.8 L279.1 287.1 L278.9 286.7 L277.9 283.5 L278.5 280.3 L279.1 279.8 L279.6 280.3 L282.1 283.3 L282.4 283.5 L284.9 286.7 L285.2 287.1 L287.2 289.8 L288.3 291.6 L289.2 293 L290.9 296.1 L291.3 297.2 L292.2 299.2"></path><path d="M284.8 299.3 L285.2 300.3 L287 302.4 L288.3 304.6 L289.7 305.5"></path><path d="M272.9 267.7 L271.8 264.6 L271.2 261.5 L270.6 258.3 L270 255.2 L269.9 254.2 L269.4 252 L269 248.9 L268.6 245.7 L268.4 242.6 L268.2 239.4 L268 236.3 L268 233.1 L268.1 230 L268.3 226.8 L268.7 223.7 L269.2 220.5 L269.9 217.6 L270 217.4 L271.9 214.2 L272.9 212.8 L276 213.3 L276.6 214.2 L278.5 217.4 L279.1 218.5 L279.7 220.5 L280.5 223.7 L281.2 226.8 L281.7 230 L282.1 233.1 L282.1 233.9 L282.3 236.3 L282.5 239.4 L282.6 242.6 L282.6 245.7 L282.5 248.9 L282.4 252 L282.1 254.4 L282.1 255.2 L282 258.3 L282.1 261.5 L282.1 261.6 L282.3 261.5 L285.2 259.5 L286.6 258.3 L288.3 256.9 L290.7 255.2 L291.3 254.7 L294.4 253.1 L297.5 252.1 L300.5 252.5 L302.6 255.2 L302.4 258.3 L301.3 261.5 L300.5 262.5 L299.3 264.6 L297.5 266.6 L296.5 267.7"></path><path d="M223.4 267.7 L223.8 264.6 L223.9 264.4 L225.5 261.5 L226.9 260.1 L229.7 258.3 L230 258.2 L233.1 257.3 L236.1 256.8 L239.2 256.8 L242.3 257.1 L245.3 257.7 L247.6 258.3 L248.4 258.5 L251.5 259.6 L254.5 260.9 L255.6 261.5 L257.6 262.4 L260.7 264.2 L261.2 264.6 L263.7 266.1 L265.7 267.7"></path><path d="M223.4 267.8 L223.9 270.7 L223.9 270.9 L225.3 274"></path><path d="M265.7 267.8 L266.8 268.4 L269.7 270.9 L269.9 271 L272.9 273.6 L273.7 270.9 L272.9 267.8 L272.9 267.8"></path><path d="M287.7 274 L288.3 273.7 L291.3 271.8 L292.8 270.9 L294.4 269.5 L296.5 267.8"></path><path d="M225.3 274.1 L226.9 276.2 L227.7 277.2 L230 279.2 L231.4 280.3 L233.1 281.3 L236.1 283 L237.3 283.5 L239.2 284.2 L242.3 285.1 L245.3 285.7 L248.4 286.1 L251.5 286.3 L254.5 286.3 L257.6 286.1 L260.7 285.7 L263.7 285.4 L266.5 286.7 L264.9 289.8 L263.8 293 L263.7 293 L262.4 296.1 L261.3 299.2"></path><path d="M272.1 299.2 L272.9 296.8 L273.1 296.1 L274 293 L274.7 289.8 L275.2 286.7 L275.4 283.5 L275 280.3 L275.9 277.2 L276 277.1 L279.1 276.8 L282.1 276.2 L285.2 275.2 L287.7 274.1"></path><path d="M280.6 299.2 L279.7 296.1 L279.1 293.9 L278.6 293 L277.4 289.8 L276.7 286.7 L276.3 283.5 L276.3 280.3 L279.1 277.6 L281.8 280.3 L282.1 280.7 L285.2 282.9 L285.9 283.5 L288.3 285.6 L289.4 286.7 L291.3 288.7 L292.5 289.8 L294.4 292.1 L295.2 293 L297.5 295.8 L297.7 296.1 L300 299.2"></path><path d="M259.7 305.5 L260.4 302.4 L260.7 301.6 L261.3 299.3"></path><path d="M280.6 299.3 L281.6 302.4 L282.1 303.8 L282.8 305.5"></path><path d="M300 299.3 L300.5 300.1 L302.1 302.4 L303.6 305 L303.9 305.5"></path><path d="M259.7 305.6 L259.3 308.7 L259.3 311.8 L260.1 315 L260.7 316 L263.7 315.5 L264.1 315 L266.8 311.9 L266.8 311.8 L268.3 308.7 L269.9 305.8 L270 305.6"></path><path d="M282.8 305.6 L284 308.7 L285.2 311.5 L285.4 311.8 L286.9 315 L288.3 317.9 L288.4 318.2 L290.2 321.3 L291.3 323.4 L292.1 324.5 L294.2 327.6 L294.4 327.9 L296.8 330.7"></path><path d="M303.9 305.6 L305.6 308.7 L306.7 310.9 L307.2 311.8 L308.5 315 L309.7 318.2 L309.7 318.4 L310.6 321.3 L311.3 324.5 L311.7 327.6 L311.7 330.7"></path><path d="M296.8 330.8 L297.5 331.7 L299.9 333.9 L300.5 334.6 L303.6 336.6 L305.1 337"></path><path d="M311.7 330.8 L311.1 333.9 L309.7 336.4 L308.4 337"></path><path d="M266.6 179.6 L266.8 179.1 L269.6 176.4 L269.9 176.1 L272.9 175.3 L276 176.2 L276.2 176.4 L279.1 179 L279.5 179.6"></path><path d="M266.6 179.5 L264.9 182.7 L263.7 185.3 L263.6 185.9 L262.7 189 L261.9 192.2 L261.3 195.3 L260.9 198.5 L260.7 200.1 L260.5 201.6 L260.3 204.8 L260.1 207.9 L260.1 211.1 L260.1 214.2 L260.2 217.4 L260.3 220.5 L260.5 223.7 L260.7 225 L260.8 226.8 L261.1 230 L261.5 233.1 L261.9 236.3 L262.4 239.4 L262.9 242.6 L263.6 245.7 L263.7 246.1 L264.2 248.9 L264.7 252 L265.3 255.2 L265.7 258.3 L263.7 259.2 L262.6 258.3 L260.7 256.9 L258.3 255.2 L257.6 254.7 L254.5 252.5 L253.7 252 L251.5 250.5 L248.6 248.9 L248.4 248.8 L245.3 247.1 L242.4 245.7 L242.3 245.6 L239.2 244.3 L236.1 243.2 L234.1 242.6 L233.1 242.2 L230 241.4 L226.9 240.9 L223.9 240.5 L220.8 240.3 L217.7 240.3 L214.7 240.7 L211.6 241.3 L208.5 242.3 L208 242.6 L205.5 243.9 L202.8 245.7 L202.4 246 L199.6 248.9 L199.3 249.3 L197.6 252 L196.3 254.9 L196.2 255.2 L195.3 258.3 L194.9 261.5 L194.9 264.6 L195.3 267.7"></path><path d="M279.5 179.5 L281.6 182.7 L282.1 183.6 L283.2 185.9 L284.5 189 L285.2 190.9 L285.6 192.2 L286.6 195.3 L287.4 198.5 L288.1 201.6 L288.3 202.2 L288.8 204.8 L289.4 207.9 L289.9 211.1 L290.4 214.2 L290.9 217.4 L291.3 220.5 L291.3 220.5 L292 223.7 L292.9 226.8 L294.4 230 L294.4 230 L297.5 231 L300.5 230.5 L302.4 230 L303.6 229.6 L306.7 228.7 L309.7 227.9 L312.8 227.5 L315.9 227.5 L318.9 228 L322 229.3 L322.9 230 L325.1 232.3 L325.6 233.1 L326.8 236.3 L327.2 239.4 L327.1 242.6 L326.5 245.7 L325.5 248.9 L325.1 249.9 L324.2 252 L322.5 255.2 L322 255.9 L320.5 258.3 L318.9 260.3 L318.1 261.5 L315.9 264 L315.3 264.6 L312.8 267 L312.1 267.7"></path><path d="M195.3 267.8 L196.1 270.9 L196.3 271.5 L197.2 274"></path><path d="M303.8 274 L306.7 272.1 L308.3 270.9 L309.7 269.7 L312.1 267.8"></path><path d="M197.2 274.1 L198.6 277.2 L199.3 278.4 L200.6 280.3 L202.4 282.8 L203 283.5 L205.5 286.2 L205.9 286.7 L208.5 288.9 L209.6 289.8 L211.6 291.2 L214.4 293 L214.7 293.1 L217.7 294.8 L220.7 296.1 L220.8 296.2 L223.9 297.4 L226.9 298.4 L229.7 299.2"></path><path d="M309.5 299.2 L307 296.1 L306.7 295.7 L304.3 293 L303.6 292.2 L301.4 289.8 L300.5 288.8 L298.4 286.7 L297.5 285.4 L295.6 283.5 L294.6 280.3 L297.5 278.2 L298.6 277.2 L300.5 276.2 L303.6 274.2 L303.8 274.1"></path><path d="M229.7 299.3 L230 299.4 L233.1 300.3 L236.1 301.2 L239.2 302.4 L239.3 302.4 L242.3 304.9 L242.7 305.5"></path><path d="M309.5 299.3 L309.7 299.5 L311.9 302.4 L312.8 303.6 L314.2 305.5"></path><path d="M242.7 305.6 L243.5 308.7 L243.5 311.8 L243.3 315 L242.9 318.2 L242.5 321.3 L242.3 323.6 L242.2 324.5 L241.9 327.6 L241.7 330.7"></path><path d="M314.2 305.6 L315.9 308.1 L316.3 308.7 L318.2 311.8 L318.9 313.1 L320.1 315 L321.8 318.2 L322 318.6 L323.4 321.3 L324.8 324.5 L325.1 325 L326.2 327.6 L327.4 330.7"></path><path d="M268.5 330.7 L269.9 327.6 L271.2 324.5 L272.4 321.3 L272.9 319.7 L273.7 318.2 L275 315 L276 312.3 L279.1 313.8 L279.5 315 L280.7 318.2 L282.1 321 L282.3 321.3 L283.5 324.5 L284.9 327.6 L285.2 328.2 L286.3 330.7"></path><path d="M268.5 330.8 L267 333.9 L266.8 334.3 L265.3 337"></path><path d="M286.3 330.8 L287.8 333.9 L288.3 334.7 L289.4 337"></path><path d="M327.4 330.8 L328.1 332.9 L328.5 333.9 L329.5 337"></path><path d="M241.7 337.1 L242 340.2 L242.3 341.6 L242.6 343.3 L243.8 346.5 L245.3 349.3 L245.8 349.7 L248.4 351.4 L251.5 351.4 L254.5 350.1 L255 349.7 L257.6 347.7 L258.6 346.5 L260.7 344.2 L261.3 343.3 L263.4 340.2 L263.7 339.8 L265.3 337.1"></path><path d="M289.4 337.1 L291.1 340.2 L291.3 340.6 L292.9 343.3 L294.4 345.8 L294.8 346.5 L296.9 349.7 L297.5 350.5 L299.2 352.8 L300.5 354.6 L301.6 356 L303.6 358.3 L304.4 359.1 L306.7 361.5 L307.6 362.2"></path><path d="M329.5 337.1 L330.3 340.2 L331 343.3 L331.2 344.7 L331.5 346.5 L331.9 349.7 L332 352.8 L331.9 356 L331.5 359.1 L331.2 360.5 L330.7 362.2"></path><path d="M307.6 362.3 L309.7 364.2 L311.5 365.4 L312.8 366.4 L315.9 368.1 L317.3 368.5"></path><path d="M330.7 362.3 L329.1 365.4 L328.1 366.7 L325.6 368.5"></path><path d="M317.3 368.6 L318.9 369.1 L322 369.5 L325.1 368.9 L325.6 368.6"></path><path d="M258.7 148.1 L260.6 144.9 L260.7 144.8 L263.4 141.8 L263.7 141.3 L266.8 139.2 L268.6 138.6 L269.9 138.2 L272.9 138.2 L274.2 138.6 L276 139.2 L279.1 141 L279.9 141.8 L282.1 143.9 L283 144.9 L285.2 147.7 L285.4 148.1"></path><path d="M250.6 179.6 L250.9 176.4 L251.3 173.3 L251.5 172.4 L251.8 170.1 L252.4 167 L253.1 163.8 L253.9 160.7 L254.5 158.2 L254.8 157.5 L255.9 154.4 L257.1 151.2 L257.6 150.1 L258.7 148"></path><path d="M285.4 148 L287.4 151.2 L288.3 152.7 L289.1 154.4 L290.6 157.5 L291.3 159 L292 160.7 L293.3 163.8 L294.4 166.7 L294.5 167 L295.6 170.1 L296.7 173.3 L297.5 175.8 L297.7 176.4 L298.7 179.6"></path><path d="M250.6 179.5 L250.3 182.7 L250.1 185.9 L250 189 L249.9 192.2 L249.8 195.3 L249.8 198.5 L249.8 201.6 L249.9 204.8 L250 207.9 L250.1 211.1 L250.2 214.2 L250.3 217.4 L250.3 220.5 L250.2 223.7 L249.8 226.8 L248.6 230 L248.4 230.2 L245.3 230.9 L242.3 230.2 L241.4 230 L239.2 229.2 L236.1 228 L233.1 226.9 L232.7 226.8 L230 225.8 L226.9 224.8 L223.9 223.9 L222.8 223.7 L220.8 223.1 L217.7 222.5 L214.7 221.9 L211.6 221.6 L208.5 221.4 L205.5 221.4 L202.4 221.6 L199.3 222 L196.3 222.6 L193.2 223.5 L192.9 223.7 L190.1 224.8 L187.1 226.4 L186.4 226.8 L184 228.5 L182.2 230 L180.9 231.1 L179.1 233.1 L177.9 234.6 L176.7 236.3 L174.8 239.4 L174.8 239.4 L173.3 242.6 L172.1 245.7 L171.7 247.1 L171.3 248.9 L170.6 252 L170.2 255.2 L170.1 258.3 L170.1 261.5 L170.3 264.6 L170.7 267.7"></path><path d="M298.7 179.5 L299.8 182.7 L300.5 185.1 L300.8 185.9 L302.1 189 L303.5 192.2 L303.6 192.4 L305.6 195.3 L306.7 196.5 L309.5 198.5 L309.7 198.6 L312.8 199.4 L315.9 199.6 L318.9 199.5 L322 199.4 L325.1 199.3 L328.1 199.2 L331.2 199.3 L334.3 199.7 L337.3 200.4 L340.4 201.4 L340.8 201.6 L343.5 203 L345.9 204.8 L346.5 205.3 L348.9 207.9 L349.6 208.9 L350.9 211.1 L352.2 214.2 L352.7 215.6 L353.1 217.4 L353.7 220.5 L353.9 223.7 L353.9 226.8 L353.6 230 L353.1 233.1 L352.7 235 L352.4 236.3 L351.5 239.4 L350.4 242.6 L349.6 244.4 L349.1 245.7 L347.6 248.9 L346.5 250.8 L345.9 252 L344 255.2 L343.5 256 L341.9 258.3 L340.4 260.4 L339.6 261.5 L337.3 264.4 L337.1 264.6 L334.5 267.7"></path><path d="M170.7 267.8 L171.3 270.9 L171.7 272.4 L172.1 274"></path><path d="M328.7 274 L331.2 271.4 L331.6 270.9 L334.3 268 L334.5 267.8"></path><path d="M172.1 274.1 L173.1 277.2 L174.3 280.3 L174.8 281.4 L175.8 283.5 L177.4 286.7 L177.9 287.5 L179.3 289.8 L180.9 292.3 L181.4 293 L183.8 296.1 L184 296.4 L186.5 299.2"></path><path d="M325.3 299.2 L325.1 298.8 L323.5 296.1 L322 293 L322 293 L320.9 289.8 L320.7 286.7 L321.4 283.5 L322 282.5 L323.3 280.3 L325.1 278.1 L325.8 277.2 L328.1 274.7 L328.7 274.1"></path><path d="M186.5 299.3 L187.1 299.9 L189.6 302.4 L190.1 302.9 L193 305.5"></path><path d="M325.3 299.3 L327.2 302.4 L328.1 303.9 L329.1 305.5"></path><path d="M193 305.6 L193.2 305.7 L196.3 308.3 L196.8 308.7 L199.3 310.6 L201 311.8 L202.4 312.9 L205.3 315 L205.5 315.1 L208.5 317.4 L209.5 318.2 L211.6 320 L213 321.3 L214.7 323.3 L215.6 324.5 L217.4 327.6 L217.7 328.5 L218.6 330.7"></path><path d="M329.1 305.6 L331 308.7 L331.2 309 L332.9 311.8 L334.3 314.2 L334.7 315 L336.5 318.2 L337.3 319.8 L338.1 321.3 L339.8 324.5 L340.4 325.8 L341.3 327.6 L342.7 330.7"></path><path d="M342.7 330.8 L343.5 332.4 L344.1 333.9 L345.4 337"></path><path d="M219.9 337.1 L220.2 340.2 L220.5 343.3 L220.7 346.5 L220.8 348 L220.9 349.7 L221.1 352.8 L221.3 356 L221.6 359.1 L222 362.2"></path><path d="M345.4 337.1 L346.5 340 L346.6 340.2 L347.7 343.3 L348.8 346.5 L349.6 349.3 L349.7 349.7 L350.6 352.8 L351.3 356 L352 359.1 L352.6 362.2"></path><path d="M267 362.2 L269 359.1 L269.9 357.6 L271 356 L272.9 352.8 L273 352.8 L275.8 349.7 L276 349.4 L279.1 348.4 L281 349.7 L282.1 350.3 L284.1 352.8 L285.2 354.1 L286.4 356 L288.3 358.7 L288.5 359.1 L290.5 362.2"></path><path d="M262.9 368.5 L263.7 367.3 L265 365.4 L266.8 362.5 L267 362.3"></path><path d="M290.5 362.3 L291.3 363.4 L292.6 365.4 L294.4 368.1 L294.7 368.5"></path><path d="M352.6 362.3 L352.7 362.9 L353 365.4 L353.4 368.5"></path><path d="M223.1 368.6 L223.9 371.6 L223.9 371.7 L224.9 374.8 L226.2 378 L226.9 379.4 L228 381.2 L230 383.7 L230.6 384.3 L233.1 386.2 L236.1 387.4 L236.8 387.5 L239.2 387.6 L240.3 387.5 L242.3 387.1 L245.3 385.9 L248.2 384.3 L248.4 384.2 L251.5 381.8 L252.2 381.2 L254.5 378.9 L255.4 378 L257.6 375.5 L258.1 374.8 L260.6 371.7 L260.7 371.6 L262.9 368.6"></path><path d="M294.7 368.6 L296.9 371.7 L297.5 372.5 L299.1 374.8 L300.5 376.7 L301.5 378 L303.6 380.7 L304 381.2 L306.7 384.3 L306.7 384.3 L309.6 387.5 L309.7 387.6 L312.7 390.6 L312.8 390.7 L315.9 393.4 L316.3 393.7"></path><path d="M353.4 368.6 L353.6 371.7 L353.7 374.8 L353.6 378 L353.4 381.2 L353 384.3 L352.7 386.1 L352.4 387.5 L351.4 390.6 L350.1 393.7"></path><path d="M316.3 393.8 L318.9 395.8 L320.5 396.9 L322 397.9 L325.1 399.7 L325.8 400"></path><path d="M345 400 L346.5 398.8 L348.1 396.9 L349.6 394.7 L350.1 393.8"></path><path d="M325.8 400.1 L328.1 401.2 L331.2 402.2 L334.3 402.8 L337.3 402.9 L340.4 402.4 L343.5 401.1 L345 400.1"></path><path d="M239.9 148.1 L240.5 144.9 L241.1 141.8 L241.8 138.6 L242.3 136.9 L242.6 135.5 L243.5 132.3 L244.5 129.2 L245.3 126.7 L245.6 126 L246.8 122.9 L248.2 119.7 L248.4 119.2 L249.8 116.6 L251.5 113.6 L251.6 113.4 L253.8 110.3 L254.5 109.3 L256.6 107.1 L257.6 106.1 L260.3 104 L260.7 103.7 L263.7 102.1 L266.8 101.1 L269.9 100.9 L272.9 101.2 L276 102.1 L279.1 103.5 L279.7 104 L282.1 105.6 L283.9 107.1 L285.2 108.2 L287.2 110.3 L288.3 111.4 L289.9 113.4 L291.3 115.2 L292.3 116.6 L294.4 119.7 L294.4 119.7 L296.3 122.9 L297.5 124.8 L298.2 126 L299.9 129.2 L300.5 130.4 L301.5 132.3 L303.1 135.5 L303.6 136.6 L304.6 138.6 L306.1 141.8 L306.7 142.9 L307.7 144.9 L309.3 148.1"></path><path d="M239.9 148 L239.3 151.2 L239.2 152.1 L238.8 154.4 L238.4 157.5 L238 160.7 L237.6 163.8 L237.2 167 L236.9 170.1 L236.6 173.3 L236.2 176.4 L236.1 177.4 L235.9 179.6"></path><path d="M309.3 148 L309.7 149 L311 151.2 L312.8 154.3 L312.8 154.4 L315.1 157.5 L315.9 158.5 L317.9 160.7 L318.9 161.6 L322 163.8 L322 163.8 L325.1 165.2 L328.1 166.2 L331.2 166.8 L332.1 167 L334.3 167.3 L337.3 167.6 L340.4 167.9 L343.5 168.3 L346.5 168.7 L349.6 169.3 L352.7 170 L352.8 170.1 L355.7 171 L358.8 172.3 L360.7 173.3 L361.9 173.9 L364.9 176 L365.5 176.4 L368 178.6 L368.9 179.6"></path><path d="M235.9 179.5 L235.4 182.7 L234.9 185.9 L234.3 189 L233.5 192.2 L233.1 193.5 L232.2 195.3 L230 198.3 L229.8 198.5 L226.9 200.1 L223.9 200.8 L220.8 201 L217.7 200.9 L214.7 200.7 L211.6 200.4 L208.5 200.2 L205.5 200 L202.4 199.9 L199.3 199.9 L196.3 200 L193.2 200.3 L190.1 200.7 L187.1 201.3 L186 201.6 L184 202.1 L180.9 203.1 L177.9 204.4 L177.1 204.8 L174.8 205.9 L171.7 207.7 L171.4 207.9 L168.7 209.9 L167.2 211.1 L165.6 212.5 L163.8 214.2 L162.5 215.6 L161 217.4 L159.5 219.4 L158.7 220.5 L156.7 223.7 L156.4 224.1 L154.9 226.8 L153.5 230 L153.3 230.3 L152.2 233.1 L151.2 236.3 L150.3 239.4 L150.3 239.6 L149.6 242.6 L149.1 245.7 L148.7 248.9 L148.4 252 L148.3 255.2 L148.3 258.3 L148.4 261.5 L148.7 264.6 L149.1 267.7"></path><path d="M368.9 179.5 L371.1 182 L371.6 182.7 L373.6 185.9 L374.1 186.7 L375.3 189 L376.6 192.2 L377.2 193.8 L377.7 195.3 L378.5 198.5 L379.1 201.6 L379.6 204.8 L379.8 207.9 L379.9 211.1 L379.9 214.2 L379.7 217.4 L379.4 220.5 L379 223.7 L378.4 226.8 L377.8 230 L377.2 232.2 L377 233.1 L376.1 236.3 L375.1 239.4 L374.1 242 L373.9 242.6 L372.7 245.7 L371.4 248.9 L371.1 249.5 L369.9 252 L368.4 255.2 L368 255.9 L366.7 258.3 L365 261.5 L364.9 261.5 L363.2 264.6 L361.9 266.8 L361.3 267.7"></path><path d="M361.3 267.8 L359.4 270.9 L358.8 271.9 L357.5 274"></path><path d="M150.2 274.1 L150.3 274.3 L150.9 277.2 L151.8 280.3 L152.8 283.5 L153.3 285.1 L153.9 286.7 L155.1 289.8 L156.4 292.8 L156.5 293 L158 296.1 L159.5 299 L159.6 299.2"></path><path d="M350.2 299.2 L349.9 296.1 L349.9 293 L350.4 289.8 L351.2 286.7 L352.5 283.5 L352.7 283.1 L354 280.3 L355.7 277.2 L355.7 277.1 L357.5 274.1"></path><path d="M159.6 299.3 L161.4 302.4 L162.5 304.4 L163.2 305.5"></path><path d="M163.2 305.6 L165.3 308.7 L165.6 309.2 L167.4 311.8 L168.7 313.6 L169.7 315 L171.7 317.7 L172.1 318.2 L174.6 321.3 L174.8 321.5 L177.2 324.5 L177.9 325.3 L179.8 327.6 L180.9 329.1 L182.3 330.7"></path><path d="M351.6 305.6 L352.5 308.7 L352.7 309 L353.7 311.8 L354.9 315 L355.7 317.2 L356.1 318.2 L357.4 321.3 L358.6 324.5 L358.8 324.8 L359.9 327.6 L361.2 330.7"></path><path d="M182.3 330.8 L184 333 L184.7 333.9 L187 337"></path><path d="M361.2 330.8 L361.9 332.6 L362.4 333.9 L363.6 337"></path><path d="M187 337.1 L187.1 337.2 L189 340.2 L190.1 342.2 L190.8 343.3 L192.3 346.5 L193.2 348.6 L193.6 349.7 L194.7 352.8 L195.7 356 L196.3 358.3 L196.5 359.1 L197.2 362.2"></path><path d="M363.6 337.1 L364.7 340.2 L364.9 340.8 L365.8 343.3 L366.9 346.5 L367.9 349.7 L368 350 L368.8 352.8 L369.7 356 L370.6 359.1 L371.1 361.1 L371.4 362.2"></path><path d="M198.4 368.6 L198.9 371.7 L199.3 374.4 L199.4 374.8 L199.9 378 L200.5 381.2 L201 384.3 L201.6 387.5 L202.3 390.6 L202.4 391 L203 393.7"></path><path d="M372.7 368.6 L373.3 371.7 L373.9 374.8 L374.1 376.7 L374.3 378 L374.7 381.2 L375 384.3 L375.3 387.5 L375.4 390.6 L375.5 393.7"></path><path d="M268 393.7 L269.9 391.7 L271 390.6 L272.9 388.7 L274.6 387.5 L276 386.5 L279.1 385.4 L282.1 385.6 L285.2 387 L285.8 387.5 L288.3 389.4 L289.5 390.6 L291.3 392.3 L292.6 393.7"></path><path d="M262.6 400 L263.7 398.7 L265.3 396.9 L266.8 395.1 L268 393.8"></path><path d="M292.6 393.8 L294.4 395.7 L295.4 396.9 L297.5 399.2 L298.2 400"></path><path d="M204.8 400.1 L205.5 402 L205.9 403.2 L207.1 406.3 L208.5 409.4 L208.6 409.5 L210.4 412.7 L211.6 414.6 L212.5 415.8 L214.7 418.3 L215.4 419 L217.7 420.9 L219.8 422.1 L220.8 422.7 L223.9 423.7 L226.9 424.2 L230 424.1 L233.1 423.5 L236.1 422.5 L237.1 422.1 L239.2 421.2 L242.3 419.4 L242.9 419 L245.3 417.3 L247.2 415.8 L248.4 414.9 L250.9 412.7 L251.5 412.1 L254.1 409.5 L254.5 409.1 L257.1 406.3 L257.6 405.8 L259.9 403.2 L260.7 402.4 L262.6 400.1"></path><path d="M298.2 400.1 L300.5 402.7 L300.9 403.2 L303.6 406.3 L303.7 406.3 L306.5 409.5 L306.7 409.7 L309.4 412.7 L309.7 413 L312.5 415.8 L312.8 416.1 L315.7 419 L315.9 419.1 L318.9 421.9 L319.2 422.1 L322 424.5 L323 425.2"></path><path d="M375.4 400.1 L375.1 403.2 L374.8 406.3 L374.3 409.5 L374.1 410.3 L373.7 412.7 L372.8 415.8 L371.8 419 L371.1 420.9 L370.5 422.1 L368.9 425.2"></path><path d="M323 425.3 L325.1 426.9 L327.2 428.4 L328.1 429 L331.2 431 L332.2 431.6 L334.3 432.7 L337.3 434.2 L338.7 434.7 L340.4 435.4 L343.5 436.3 L346.5 436.9 L349.6 437.1 L352.7 437 L355.7 436.3 L358.8 435.2 L359.7 434.7 L361.9 433.4 L364 431.6 L364.9 430.7 L366.8 428.4 L368 426.8 L368.9 425.3"></path><path d="M257.4 66.2 L257.6 66 L260.7 64.8 L263.7 64 L266.8 63.6 L269.9 63.7 L272.9 64.1 L276 65 L278.9 66.2"></path><path d="M233.9 97.7 L235.2 94.5 L236.1 92.2 L236.5 91.4 L238.1 88.2 L239.2 86 L239.7 85.1 L241.6 81.9 L242.3 80.8 L243.7 78.8 L245.3 76.5 L246 75.6 L248.4 72.9 L248.9 72.5 L251.5 70 L252.4 69.3 L254.5 67.8 L257.4 66.1"></path><path d="M278.9 66.1 L279.1 66.2 L282.1 67.8 L284.5 69.3 L285.2 69.8 L288.3 72.1 L288.6 72.5 L291.3 74.8 L292.1 75.6 L294.4 77.9 L295.2 78.8 L297.5 81.4 L297.9 81.9 L300.4 85.1 L300.5 85.2 L302.8 88.2 L303.6 89.3 L305.1 91.4 L306.7 93.7 L307.2 94.5 L309.3 97.7"></path><path d="M220.4 148.1 L220.8 146.5 L221.2 144.9 L222 141.8 L222.7 138.6 L223.4 135.5 L223.9 133.5 L224.1 132.3 L224.8 129.2 L225.6 126 L226.3 122.9 L226.9 120.4 L227.1 119.7 L227.9 116.6 L228.8 113.4 L229.7 110.3 L230 109.1 L230.6 107.1 L231.6 104 L232.7 100.8 L233.1 99.8 L233.9 97.6"></path><path d="M309.3 97.6 L309.7 98.3 L311.4 100.8 L312.8 103 L313.4 104 L315.5 107.1 L315.9 107.7 L317.6 110.3 L318.9 112.2 L319.8 113.4 L322 116.3 L322.2 116.6 L324.8 119.7 L325.1 120 L327.9 122.9 L328.1 123.1 L331.2 125.6 L331.7 126 L334.3 127.7 L336.8 129.2 L337.3 129.4 L340.4 130.8 L343.5 131.9 L344.8 132.3 L346.5 132.8 L349.6 133.6 L352.7 134.4 L355.7 135.2 L356.7 135.5 L358.8 136 L361.9 136.9 L364.9 137.9 L367 138.6 L368 139 L371.1 140.3 L374 141.8 L374.1 141.8 L377.2 143.6 L379.1 144.9 L380.3 145.8 L383.1 148.1"></path><path d="M220.4 148 L219.5 151.2 L218.4 154.4 L217.7 156.3 L217.2 157.5 L215.7 160.7 L214.7 162.5 L213.7 163.8 L211.6 166.3 L210.9 167 L208.5 168.9 L206.4 170.1 L205.5 170.6 L202.4 171.8 L199.3 172.8 L197.7 173.3 L196.3 173.6 L193.2 174.3 L190.1 175 L187.1 175.7 L184.3 176.4 L184 176.5 L180.9 177.3 L177.9 178.3 L174.8 179.3 L174.2 179.6"></path><path d="M383.1 148 L383.3 148.2 L386.4 151.2 L386.4 151.2 L389.1 154.4 L389.5 154.8 L391.4 157.5 L392.5 159.2 L393.4 160.7 L395.2 163.8 L395.6 164.7 L396.6 167 L397.9 170.1 L398.7 172.1 L399.1 173.3 L400 176.4 L400.8 179.6"></path><path d="M129.2 267.7 L128.8 264.6 L128.8 264.4 L128.6 261.5 L128.4 258.3 L128.3 255.2 L128.3 252 L128.4 248.9 L128.6 245.7 L128.8 244.1 L129 242.6 L129.4 239.4 L129.9 236.3 L130.5 233.1 L131.2 230 L131.9 227.7 L132.1 226.8 L133.1 223.7 L134.2 220.5 L134.9 218.7 L135.5 217.4 L136.9 214.2 L138 212.1 L138.5 211.1 L140.3 207.9 L141.1 206.7 L142.3 204.8 L144.1 202.2 L144.6 201.6 L147.1 198.5 L147.2 198.4 L150 195.3 L150.3 195 L153.3 192.2 L153.3 192.1 L156.4 189.5 L157.1 189 L159.5 187.2 L161.6 185.9 L162.5 185.2 L165.6 183.5 L167.1 182.7 L168.7 181.9 L171.7 180.5 L174.2 179.5"></path><path d="M400.8 179.5 L401.5 182.7 L401.7 183.9 L402.1 185.9 L402.5 189 L402.8 192.2 L403.1 195.3 L403.2 198.5 L403.3 201.6 L403.2 204.8 L403.1 207.9 L402.9 211.1 L402.6 214.2 L402.2 217.4 L401.8 220.5 L401.7 220.8 L401.3 223.7 L400.7 226.8 L400 230 L399.3 233.1 L398.7 235.5 L398.5 236.3 L397.6 239.4 L396.7 242.6 L395.7 245.7 L395.6 246 L394.7 248.9 L393.6 252 L392.5 254.9 L392.4 255.2 L391.3 258.3 L390 261.5 L389.5 263 L388.8 264.6 L387.6 267.7"></path><path d="M385.1 274 L386.3 270.9 L386.4 270.7 L387.6 267.8"></path><path d="M130.1 274.1 L130.7 277.2 L131.4 280.3 L131.9 282.3 L132.2 283.5 L133 286.7 L134 289.8 L134.9 292.8 L135 293 L136.1 296.1 L137.3 299.2"></path><path d="M385.1 274.1 L383.9 277.2 L383.3 278.8 L382.8 280.3 L381.7 283.5 L380.8 286.7 L380.3 288.7 L380 289.8 L379.3 293 L378.8 296.1 L378.5 299.2"></path><path d="M137.3 299.3 L138 301.1 L138.5 302.4 L139.9 305.5"></path><path d="M139.9 305.6 L141.1 308.2 L141.3 308.7 L142.8 311.8 L144.1 314.6 L144.3 315 L146 318.2 L147.2 320.5 L147.7 321.3 L149.4 324.5 L150.3 326 L151.2 327.6 L153 330.7"></path><path d="M378.3 305.6 L378.5 308.7 L378.8 311.8 L379.2 315 L379.7 318.2 L380.3 321 L380.3 321.3 L381 324.5 L381.7 327.6 L382.5 330.7"></path><path d="M153 330.8 L153.3 331.3 L154.8 333.9 L156.4 336.6 L156.7 337"></path><path d="M382.5 330.8 L383.3 333.9 L383.3 334.1 L384.1 337"></path><path d="M156.7 337.1 L158.5 340.2 L159.5 341.9 L160.3 343.3 L162.1 346.5 L162.5 347.4 L163.8 349.7 L165.4 352.8 L165.6 353.3 L166.9 356 L168.3 359.1 L168.7 360.1 L169.6 362.2"></path><path d="M384.1 337.1 L384.9 340.2 L385.7 343.3 L386.4 346 L386.5 346.5 L387.3 349.7 L388.1 352.8 L388.9 356 L389.5 358.5 L389.6 359.1 L390.3 362.2"></path><path d="M169.6 362.3 L170.8 365.4 L171.7 368.1 L171.9 368.5"></path><path d="M171.9 368.6 L172.9 371.7 L173.8 374.8 L174.7 378 L174.8 378.4 L175.5 381.2 L176.2 384.3 L177 387.5 L177.6 390.6 L177.9 391.7 L178.3 393.7"></path><path d="M391.6 368.6 L392.2 371.7 L392.5 373.3 L392.8 374.8 L393.3 378 L393.8 381.2 L394.3 384.3 L394.7 387.5 L395.1 390.6 L395.4 393.7"></path><path d="M395.4 393.8 L395.6 396.5 L395.6 396.9 L395.8 400"></path><path d="M179.6 400.1 L180.3 403.2 L180.9 406.3 L180.9 406.3 L181.7 409.5 L182.4 412.7 L183.2 415.8 L184 419 L184 419.1 L184.9 422.1 L185.8 425.2"></path><path d="M395.8 400.1 L396 403.2 L396.1 406.3 L396.1 409.5 L396.1 412.7 L396 415.8 L395.9 419 L395.7 422.1 L395.6 422.9 L395.4 425.2"></path><path d="M272.9 425.2 L272.9 425.2 L276 423.5 L279.1 422.5 L282.1 422.2 L285.2 422.6 L288.3 423.7 L291.1 425.2"></path><path d="M185.8 425.3 L186.8 428.4 L187.1 429.1 L188 431.6 L189.2 434.7 L190.1 436.9 L190.6 437.9 L192.1 441 L193.2 443 L193.9 444.2 L195.9 447.3 L196.3 447.9 L198.3 450.5 L199.3 451.7 L201.3 453.6 L202.4 454.7 L205.2 456.7"></path><path d="M233.7 456.7 L236.1 455.5 L239.2 453.6 L242.3 451.5 L243.7 450.5 L245.3 449.2 L247.7 447.3 L248.4 446.7 L251.4 444.2 L251.5 444.1 L254.5 441.3 L254.9 441 L257.6 438.4 L258.2 437.9 L260.7 435.5 L261.6 434.7 L263.7 432.6 L265 431.6 L266.8 429.9 L268.6 428.4 L269.9 427.4 L272.9 425.3"></path><path d="M291.1 425.3 L291.3 425.4 L294.4 427.5 L295.5 428.4 L297.5 430 L299.3 431.6 L300.5 432.6 L302.8 434.7 L303.6 435.4 L306.2 437.9 L306.7 438.3 L309.5 441 L309.7 441.2 L312.8 444 L312.9 444.2 L315.9 446.8 L316.4 447.3 L318.9 449.6 L320 450.5 L322 452.2 L323.7 453.6 L325.1 454.7 L327.7 456.7"></path><path d="M395.4 425.3 L395 428.4 L394.5 431.6 L393.9 434.7 L393.2 437.9 L392.5 440.7 L392.5 441 L391.5 444.2 L390.4 447.3 L389.5 449.7 L389.1 450.5 L387.6 453.6 L386.4 455.8 L385.8 456.7"></path><path d="M205.2 456.8 L205.5 457 L208.5 458.7 L211.6 459.8 L211.9 459.9 L214.7 460.5 L217.7 460.8 L220.8 460.7 L223.9 460.3 L225.4 459.9 L226.9 459.5 L230 458.4 L233.1 457.1 L233.7 456.8"></path><path d="M327.7 456.8 L328.1 457.1 L331.2 459.4 L332 459.9 L334.3 461.5 L336.8 463.1 L337.3 463.4 L340.4 465.2 L342.4 466.2 L343.5 466.7 L346.5 468.1 L349.6 469.3 L349.8 469.4 L352.7 470.2 L355.7 470.9 L358.8 471.3 L361.9 471.5 L364.9 471.3 L368 470.7 L371.1 469.8 L372.1 469.4 L374.1 468.4 L377.2 466.4 L377.5 466.2 L380.3 463.8 L381 463.1 L383.3 460.4 L383.7 459.9 L385.8 456.8"></path><path d="M222.2 66.2 L223.6 63 L223.9 62.5 L225.2 59.9 L226.8 56.7 L226.9 56.4 L228.5 53.6 L230 51.1 L230.4 50.4 L232.5 47.3 L233.1 46.4 L234.8 44.1 L236.1 42.4 L237.4 40.9 L239.2 38.9 L240.3 37.8 L242.3 36 L243.8 34.7 L245.3 33.5 L248.2 31.5 L248.4 31.4 L251.5 29.7 L254.5 28.4 L257.6 27.4 L260.7 26.7 L263.7 26.4 L266.8 26.3 L269.9 26.6 L272.9 27.1 L276 27.9 L277.3 28.4 L279.1 29 L282.1 30.3 L284.5 31.5 L285.2 31.9 L288.3 33.7 L289.7 34.7 L291.3 35.8 L294 37.8 L294.4 38.1 L297.5 40.6 L297.8 40.9 L300.5 43.4 L301.2 44.1 L303.6 46.4 L304.4 47.3 L306.7 49.7 L307.4 50.4 L309.7 53 L310.2 53.6 L312.8 56.6 L312.9 56.7 L315.6 59.9 L315.9 60.2 L318.2 63 L318.9 63.9 L320.8 66.2"></path><path d="M222.2 66.1 L220.8 69.3 L220.8 69.4 L219.6 72.5 L218.4 75.6 L217.7 77.3 L217.2 78.8 L216.1 81.9 L215 85.1 L214.7 86 L213.9 88.2 L212.9 91.4 L211.9 94.5 L211.6 95.4 L210.9 97.7"></path><path d="M320.8 66.1 L322 67.7 L323.4 69.3 L325.1 71.3 L326 72.5 L328.1 74.9 L328.8 75.6 L331.2 78.2 L331.7 78.8 L334.3 81.3 L334.9 81.9 L337.3 84.2 L338.3 85.1 L340.4 86.8 L342.3 88.2 L343.5 89.1 L346.5 91.1 L346.9 91.4 L349.6 92.9 L352.6 94.5 L352.7 94.5 L355.7 96 L358.8 97.4 L359.4 97.7"></path><path d="M210.9 97.6 L209.9 100.8 L208.8 104 L208.5 104.9 L207.8 107.1 L206.7 110.3 L205.6 113.4 L205.5 113.9 L204.4 116.6 L203.2 119.7 L202.4 121.5 L201.8 122.9 L200.2 126 L199.3 127.7 L198.5 129.2 L196.4 132.3 L196.3 132.6 L194 135.5 L193.2 136.4 L191 138.6 L190.1 139.4 L187.4 141.8 L187.1 142 L184 144.2 L182.9 144.9 L180.9 146.1 L177.9 147.9 L177.6 148.1"></path><path d="M359.4 97.6 L361.9 98.7 L364.9 99.9 L367.1 100.8 L368 101.2 L371.1 102.4 L374.1 103.8 L374.5 104 L377.2 105.2 L380.3 106.7 L380.9 107.1 L383.3 108.4 L386.4 110.3 L386.4 110.3 L389.5 112.3 L390.9 113.4 L392.5 114.6 L394.9 116.6 L395.6 117.2 L398.3 119.7 L398.7 120.1 L401.3 122.9 L401.7 123.4 L403.9 126 L404.8 127.1 L406.3 129.2 L407.9 131.4 L408.4 132.3 L410.3 135.5 L410.9 136.5 L412.1 138.6 L413.6 141.8 L414 142.5 L415.1 144.9 L416.3 148.1"></path><path d="M133.9 179.6 L134.9 178.4 L136.7 176.4 L138 175 L139.8 173.3 L141.1 172 L143.1 170.1 L144.1 169.2 L146.8 167 L147.2 166.6 L150.3 164.2 L150.9 163.8 L153.3 162 L155.4 160.7 L156.4 160 L159.5 158.1 L160.4 157.5 L162.5 156.2 L165.6 154.5 L165.9 154.4 L168.7 152.8 L171.7 151.2 L171.8 151.2 L174.8 149.6 L177.6 148"></path><path d="M416.3 148 L417.1 150 L417.5 151.2 L418.5 154.4 L419.5 157.5 L420.1 160 L420.3 160.7 L421 163.8 L421.7 167 L422.2 170.1 L422.7 173.3 L423.1 176.4 L423.2 177 L423.5 179.6"></path><path d="M109.9 267.7 L109.6 264.6 L109.3 261.5 L109.2 258.3 L109 255.2 L109 252 L109 248.9 L109.1 245.7 L109.3 242.6 L109.6 239.4 L109.9 236.3 L110.4 233.1 L110.4 232.9 L110.9 230 L111.5 226.8 L112.2 223.7 L113 220.5 L113.5 218.6 L113.8 217.4 L114.8 214.2 L115.9 211.1 L116.5 209.3 L117.1 207.9 L118.4 204.8 L119.6 202 L119.8 201.6 L121.4 198.5 L122.7 196 L123 195.3 L124.9 192.2 L125.7 190.8 L126.9 189 L128.8 186.2 L129 185.9 L131.4 182.7 L131.9 182.1 L133.9 179.5"></path><path d="M423.5 179.5 L423.7 182.7 L423.9 185.9 L424 189 L424.1 192.2 L424.1 195.3 L424 198.5 L423.9 201.6 L423.7 204.8 L423.5 207.9 L423.2 211.1 L422.9 214.2 L422.5 217.4 L422 220.5 L421.5 223.7 L421 226.8 L420.4 230 L420.1 231.4 L419.8 233.1 L419.1 236.3 L418.4 239.4 L417.7 242.6 L417.1 245.1 L416.9 245.7 L416.1 248.9 L415.3 252 L414.4 255.2 L414 256.8 L413.6 258.3 L412.7 261.5 L411.8 264.6 L410.9 267.7 L410.9 267.7"></path><path d="M109.9 267.8 L110.3 270.9 L110.4 271.5 L110.8 274"></path><path d="M110.8 274.1 L111.3 277.2 L111.9 280.3 L112.5 283.5 L113.3 286.7 L113.5 287.4 L114.1 289.8 L114.9 293 L115.8 296.1 L116.5 298.5 L116.8 299.2"></path><path d="M409.2 274.1 L408.4 277.2 L407.9 279.2 L407.6 280.3 L406.8 283.5 L406.1 286.7 L405.4 289.8 L404.9 293 L404.8 293.4 L404.4 296.1 L404 299.2"></path><path d="M118.9 305.6 L119.6 307.6 L120 308.7 L121.2 311.8 L122.4 315 L122.7 315.6 L123.7 318.2 L125 321.3 L125.7 322.9 L126.4 324.5 L127.8 327.6 L128.8 329.8 L129.2 330.7"></path><path d="M403.4 305.6 L403.2 308.7 L403.2 311.8 L403.2 315 L403.3 318.2 L403.5 321.3 L403.7 324.5 L404 327.6 L404.3 330.7"></path><path d="M129.2 330.8 L130.7 333.9 L131.9 336.4 L132.2 337"></path><path d="M404.3 330.8 L404.7 333.9 L404.8 334.3 L405.2 337"></path><path d="M132.2 337.1 L133.7 340.2 L134.9 342.9 L135.2 343.3 L136.7 346.5 L138 349.4 L138.1 349.7 L139.6 352.8 L141 356 L141.1 356 L142.4 359.1 L143.8 362.2"></path><path d="M405.2 337.1 L405.6 340.2 L406.1 343.3 L406.6 346.5 L407.2 349.7 L407.7 352.8 L407.9 353.9 L408.2 356 L408.7 359.1 L409.3 362.2"></path><path d="M143.8 362.3 L144.1 363 L145.1 365.4 L146.4 368.5"></path><path d="M146.4 368.6 L147.2 370.6 L147.6 371.7 L148.8 374.8 L149.9 378 L150.3 379.2 L150.9 381.2 L151.9 384.3 L152.9 387.5 L153.3 389.1 L153.8 390.6 L154.6 393.7"></path><path d="M410.3 368.6 L410.8 371.7 L410.9 372.6 L411.3 374.8 L411.7 378 L412.2 381.2 L412.6 384.3 L413 387.5 L413.4 390.6 L413.7 393.7"></path><path d="M413.7 393.8 L414 396.7 L414 396.9 L414.3 400"></path><path d="M156.2 400.1 L156.4 400.8 L157 403.2 L157.7 406.3 L158.4 409.5 L159.1 412.7 L159.5 414.1 L159.8 415.8 L160.5 419 L161.2 422.1 L161.9 425.2"></path><path d="M414.3 400.1 L414.6 403.2 L414.8 406.3 L415 409.5 L415.1 412.7 L415.2 415.8 L415.3 419 L415.3 422.1 L415.3 425.2"></path><path d="M161.9 425.3 L162.5 427.9 L162.7 428.4 L163.4 431.6 L164.2 434.7 L164.9 437.9 L165.6 440.4 L165.8 441 L166.6 444.2 L167.5 447.3 L168.5 450.5 L168.7 451 L169.5 453.6 L170.6 456.7"></path><path d="M415.3 425.3 L415.2 428.4 L415.1 431.6 L415 434.7 L414.7 437.9 L414.5 441 L414.2 444.2 L414 445.6 L413.8 447.3 L413.3 450.5 L412.8 453.6 L412.2 456.7"></path><path d="M170.6 456.8 L171.7 459.9 L171.7 460 L173 463.1 L174.3 466.2 L174.8 467.3 L175.8 469.4 L177.3 472.5 L177.9 473.5 L179.1 475.7 L180.9 478.7 L181 478.8 L183.2 482 L184 483 L185.8 485.1 L187.1 486.5 L188.8 488.2"></path><path d="M236.7 488.2 L239.2 486.6 L241.4 485.1 L242.3 484.5 L245.3 482.3 L245.8 482 L248.4 479.9 L249.9 478.8 L251.5 477.5 L253.8 475.7 L254.5 475.1 L257.6 472.6 L257.7 472.5 L260.7 470.2 L261.8 469.4 L263.7 467.8 L266 466.2 L266.8 465.6 L269.9 463.7 L271 463.1 L272.9 462 L276 460.6 L278.4 459.9 L279.1 459.7 L282.1 459.2 L285.2 459.2 L288.3 459.7 L289 459.9 L291.3 460.6 L294.4 461.8 L296.7 463.1 L297.5 463.5 L300.5 465.3 L301.8 466.2 L303.6 467.4 L306.2 469.4 L306.7 469.7 L309.7 472 L310.3 472.5 L312.8 474.4 L314.3 475.7 L315.9 476.9 L318.2 478.8 L318.9 479.4 L322 481.8 L322.2 482 L325.1 484.2 L326.2 485.1 L328.1 486.5 L330.4 488.2"></path><path d="M412.2 456.8 L411.6 459.9 L410.9 462.7 L410.9 463.1 L410 466.2 L409.1 469.4 L408 472.5 L407.9 472.9 L406.8 475.7 L405.5 478.8 L404.8 480.4 L404 482 L402.3 485.1 L401.7 486.1 L400.4 488.2"></path><path d="M188.8 488.3 L190.1 489.5 L192.5 491.4 L193.2 491.9 L196.3 493.8 L197.8 494.6 L199.3 495.3 L202.4 496.3 L205.5 497 L208.5 497.3 L211.6 497.4 L214.7 497.1 L217.7 496.6 L220.8 495.8 L223.9 494.8 L224.4 494.6 L226.9 493.5 L230 492.1 L231.3 491.4 L233.1 490.4 L236.1 488.6 L236.7 488.3"></path><path d="M330.4 488.3 L331.2 488.8 L334.3 491 L334.9 491.4 L337.3 493.1 L339.7 494.6 L340.4 495 L343.5 496.9 L345 497.7 L346.5 498.5 L349.6 500.1 L351.3 500.9 L352.7 501.5 L355.7 502.7 L358.8 503.7 L359.9 504 L361.9 504.5 L364.9 505.2 L368 505.5 L371.1 505.7 L374.1 505.6 L377.2 505.1 L380.3 504.4 L381.4 504 L383.3 503.3 L386.4 501.8 L388 500.9 L389.5 499.9 L392.3 497.7 L392.5 497.5 L395.5 494.6 L395.6 494.5 L398.1 491.4 L398.7 490.7 L400.4 488.3"></path><path d="M216.5 22 L217.7 20 L218.5 18.9 L220.5 15.8 L220.8 15.4 L222.8 12.6 L223.9 11.2 L225.2 9.5 L226.9 7.4 L228 6.3 L230 4.1 L231 3.2 L233.1 1.2 L234.5 0"></path><path d="M295.7 0 L297.5 1.2 L300.3 3.2 L300.5 3.3 L303.6 5.7 L304.4 6.3 L306.7 8.1 L308.3 9.5 L309.7 10.7 L311.9 12.6 L312.8 13.4 L315.3 15.8 L315.9 16.3 L318.7 18.9 L318.9 19.2 L321.9 22"></path><path d="M216.5 22.1 L214.7 25.2 L213 28.4 L211.6 31 L211.3 31.5 L209.8 34.7 L208.5 37.3 L208.3 37.8 L206.9 40.9 L205.5 44.1 L205.5 44.2 L204.2 47.3 L202.9 50.4 L202.4 51.6 L201.6 53.6 L200.4 56.7 L199.3 59.4 L199.2 59.9 L198 63 L196.8 66.2"></path><path d="M321.9 22.1 L322 22.2 L325.1 25.2 L325.1 25.2 L328.1 28.2 L328.2 28.4 L331.2 31.3 L331.4 31.5 L334.3 34.3 L334.6 34.7 L337.3 37.2 L337.9 37.8 L340.4 40.1 L341.4 40.9 L343.5 42.8 L344.9 44.1 L346.5 45.4 L348.8 47.3 L349.6 47.9 L352.7 50.3 L352.9 50.4 L355.7 52.5 L357.3 53.6 L358.8 54.6 L361.9 56.5 L362.1 56.7 L364.9 58.4 L367.4 59.9 L368 60.2 L371.1 62 L372.8 63 L374.1 63.7 L377.2 65.5 L378.4 66.2"></path><path d="M183 97.7 L184 95.8 L184.7 94.5 L186.3 91.4 L187.1 89.7 L187.8 88.2 L189.2 85.1 L190.1 82.8 L190.5 81.9 L191.8 78.8 L193.1 75.6 L193.2 75.3 L194.3 72.5 L195.5 69.3 L196.3 67.4 L196.8 66.1"></path><path d="M378.4 66.1 L380.3 67.2 L383.3 69 L383.8 69.3 L386.4 70.9 L388.9 72.5 L389.5 72.8 L392.5 74.9 L393.6 75.6 L395.6 77 L397.9 78.8 L398.7 79.3 L401.7 81.8 L401.8 81.9 L404.8 84.5 L405.4 85.1 L407.9 87.4 L408.6 88.2 L410.9 90.6 L411.6 91.4 L414 94.1 L414.3 94.5 L416.9 97.7"></path><path d="M183 97.6 L181.1 100.8 L180.9 101.1 L179.1 104 L177.9 105.7 L176.9 107.1 L174.8 109.8 L174.4 110.3 L171.7 113.4 L168.7 116.6 L165.6 119.6 L165.5 119.7 L162.5 122.4 L162 122.9 L159.5 125 L158.3 126 L156.4 127.5 L154.4 129.2 L153.3 130 L150.5 132.3 L150.3 132.5 L147.2 135 L146.7 135.5 L144.1 137.6 L142.9 138.6 L141.1 140.2 L139.3 141.8 L138 142.9 L135.8 144.9 L134.9 145.7 L132.4 148.1"></path><path d="M416.9 97.6 L417.1 97.9 L419.2 100.8 L420.1 102.1 L421.4 104 L423.2 106.8 L423.4 107.1 L425.2 110.3 L426.3 112.1 L427 113.4 L428.6 116.6 L429.3 118.1 L430.1 119.7 L431.4 122.9 L432.4 125.1 L432.7 126 L433.9 129.2 L435 132.3 L435.5 133.6 L436.1 135.5 L437 138.6 L437.9 141.8 L438.5 144.3 L438.7 144.9 L439.4 148.1"></path><path d="M107.7 179.6 L109.6 176.4 L110.4 175.1 L111.6 173.3 L113.5 170.4 L113.7 170.1 L115.9 167 L116.5 166.1 L118.3 163.8 L119.6 162.1 L120.8 160.7 L122.7 158.4 L123.5 157.5 L125.7 155 L126.3 154.4 L128.8 151.7 L129.3 151.2 L131.9 148.6 L132.4 148"></path><path d="M439.4 148 L440 151.2 L440.6 154.4 L441.2 157.5 L441.6 160.5 L441.6 160.7 L442 163.8 L442.4 167 L442.7 170.1 L442.9 173.3 L443.1 176.4 L443.2 179.6"></path><path d="M90.4 267.7 L90.1 264.6 L89.8 261.5 L89.6 258.3 L89.5 255.2 L89.4 252 L89.4 248.9 L89.4 245.7 L89.6 242.6 L89.7 239.4 L90 236.3 L90.3 233.1 L90.7 230 L91.1 226.8 L91.7 223.7 L92 221.9 L92.3 220.5 L92.9 217.4 L93.7 214.2 L94.5 211.1 L95.1 209.2 L95.4 207.9 L96.4 204.8 L97.5 201.6 L98.1 199.9 L98.7 198.5 L99.9 195.3 L101.2 192.4 L101.3 192.2 L102.7 189 L104.3 185.9 L105.9 182.7 L107.3 180.2 L107.7 179.5"></path><path d="M443.2 179.5 L443.3 182.7 L443.4 185.9 L443.4 189 L443.3 192.2 L443.2 195.3 L443.1 198.5 L442.9 201.6 L442.6 204.8 L442.4 207.9 L442.1 211.1 L441.7 214.2 L441.6 215.3 L441.3 217.4 L440.9 220.5 L440.5 223.7 L440 226.8 L439.5 230 L439 233.1 L438.5 235.5 L438.4 236.3 L437.8 239.4 L437.2 242.6 L436.6 245.7 L435.9 248.9 L435.5 251 L435.3 252 L434.6 255.2 L433.9 258.3 L433.2 261.5 L432.5 264.6 L432.4 265.3 L431.9 267.7"></path><path d="M91.2 274.1 L91.7 277.2 L92 278.9 L92.2 280.3 L92.8 283.5 L93.5 286.7 L94.2 289.8 L95 293 L95.1 293.4 L95.8 296.1 L96.6 299.2"></path><path d="M430.5 274.1 L429.9 277.2 L429.3 280 L429.3 280.3 L428.7 283.5 L428.1 286.7 L427.6 289.8 L427.1 293 L426.6 296.1 L426.3 298.9 L426.2 299.2"></path><path d="M96.6 299.3 L97.5 302.4 L98.1 304.4 L98.5 305.5"></path><path d="M98.5 305.6 L99.5 308.7 L100.5 311.8 L101.2 313.9 L101.6 315 L102.7 318.2 L103.8 321.3 L104.3 322.5 L105 324.5 L106.2 327.6 L107.3 330.4 L107.5 330.7"></path><path d="M425.6 305.6 L425.3 308.7 L425.1 311.8 L425 315 L424.9 318.2 L424.9 321.3 L424.9 324.5 L425 327.6 L425.1 330.7"></path><path d="M110 337.1 L110.4 338 L111.3 340.2 L112.6 343.3 L113.5 345.4 L113.9 346.5 L115.3 349.7 L116.5 352.7 L116.6 352.8 L117.9 356 L119.2 359.1 L119.6 360.1 L120.5 362.2"></path><path d="M425.4 337.1 L425.7 340.2 L425.9 343.3 L426.2 346.5 L426.3 347.2 L426.5 349.7 L426.8 352.8 L427.2 356 L427.5 359.1 L427.9 362.2"></path><path d="M120.5 362.3 L121.8 365.4 L122.7 367.6 L123 368.5"></path><path d="M123 368.6 L124.3 371.7 L125.5 374.8 L125.7 375.6 L126.6 378 L127.7 381.2 L128.8 384.2 L128.8 384.3 L129.9 387.5 L130.9 390.6 L131.9 393.6 L131.9 393.7"></path><path d="M428.6 368.6 L428.9 371.7 L429.3 374.8 L429.3 375.2 L429.7 378 L430 381.2 L430.3 384.3 L430.7 387.5 L431 390.6 L431.3 393.7"></path><path d="M133.8 400.1 L134.7 403.2 L134.9 404.2 L135.5 406.3 L136.4 409.5 L137.2 412.7 L137.9 415.8 L138 416.1 L138.7 419 L139.4 422.1 L140.2 425.2"></path><path d="M431.8 400.1 L432.1 403.2 L432.3 406.3 L432.4 407.6 L432.5 409.5 L432.7 412.7 L432.9 415.8 L433 419 L433.1 422.1 L433.2 425.2"></path><path d="M140.2 425.3 L140.9 428.4 L141.1 429.1 L141.6 431.6 L142.3 434.7 L143 437.9 L143.8 441 L144.1 442.6 L144.5 444.2 L145.2 447.3 L146 450.5 L146.7 453.6 L147.2 455.6 L147.5 456.7"></path><path d="M433.2 425.3 L433.2 428.4 L433.3 431.6 L433.3 434.7 L433.2 437.9 L433.1 441 L433 444.2 L432.9 447.3 L432.7 450.5 L432.5 453.6 L432.4 454.4 L432.2 456.7"></path><path d="M147.5 456.8 L148.3 459.9 L149.1 463.1 L150 466.2 L150.3 467.2 L150.9 469.4 L151.8 472.5 L152.7 475.7 L153.3 477.5 L153.8 478.8 L154.8 482 L155.9 485.1 L156.4 486.4 L157.1 488.2"></path><path d="M432.2 456.8 L431.9 459.9 L431.5 463.1 L431.1 466.2 L430.7 469.4 L430.2 472.5 L429.6 475.7 L429.3 477.1 L429 478.8 L428.3 482 L427.6 485.1 L426.8 488.2"></path><path d="M157.1 488.3 L158.4 491.4 L159.5 494.1 L159.7 494.6 L161.1 497.7 L162.5 500.7 L162.6 500.9 L164.2 504 L165.6 506.5 L166 507.2 L167.9 510.3 L168.7 511.5 L170 513.5"></path><path d="M416.8 513.5 L417.1 513.1 L418.5 510.3 L420 507.2 L420.1 506.9 L421.4 504 L422.7 500.9 L423.2 499.5 L423.8 497.7 L424.9 494.6 L425.9 491.4 L426.3 490 L426.8 488.3"></path><path d="M249.5 513.5 L251.5 512 L253.9 510.3 L254.5 509.9 L257.6 507.7 L258.5 507.2 L260.7 505.7 L263.3 504 L263.7 503.7 L266.8 501.9 L268.8 500.9 L269.9 500.3 L272.9 498.9 L276 497.7 L276.1 497.7 L279.1 496.9 L282.1 496.3 L285.2 496.1 L288.3 496.3 L291.3 496.7 L294.4 497.5 L295 497.7 L297.5 498.5 L300.5 499.8 L302.5 500.9 L303.6 501.4 L306.7 503.1 L308.2 504 L309.7 504.9 L312.8 506.9 L313.2 507.2 L315.9 509 L317.8 510.3 L318.9 511.1 L322 513.2 L322.3 513.5"></path><path d="M170 513.4 L171.7 515.8 L172.4 516.6 L174.8 519.5 L175 519.8 L177.9 522.7 L178 522.9 L180.9 525.4 L181.7 526.1 L184 527.7 L186.5 529.2 L187.1 529.6 L190.1 531.1 L193.2 532.2 L193.8 532.3"></path><path d="M214.5 532.3 L214.7 532.3 L217.7 531.4 L220.8 530.3 L223.4 529.2 L223.9 529 L226.9 527.6 L229.9 526.1 L230 526 L233.1 524.3 L235.3 522.9 L236.1 522.4 L239.2 520.5 L240.3 519.8 L242.3 518.4 L245 516.6 L245.3 516.3 L248.4 514.2 L249.5 513.4"></path><path d="M322.3 513.4 L325.1 515.4 L326.8 516.6 L328.1 517.6 L331.2 519.7 L331.3 519.8 L334.3 521.8 L335.9 522.9 L337.3 523.8 L340.4 525.8 L340.8 526.1 L343.5 527.7 L346.1 529.2 L346.5 529.5 L349.6 531.1 L352 532.3"></path><path d="M416.8 513.4 L415 516.6 L414 518.2 L412.9 519.8 L410.9 522.5 L410.6 522.9 L407.9 526.1 L404.8 529.2 L404.8 529.2 L401.7 531.8 L400.9 532.3"></path><path d="M193.8 532.4 L196.3 533 L199.3 533.5 L202.4 533.8 L205.5 533.8 L208.5 533.5 L211.6 533 L214.5 532.4"></path><path d="M352 532.4 L352.7 532.7 L355.7 534.1 L358.8 535.4 L359 535.5 L361.9 536.6 L364.9 537.6 L368 538.4 L369.3 538.7 L371.1 539 L374.1 539.4 L377.2 539.7 L380.3 539.7 L383.3 539.4 L386.4 538.9 L387.5 538.7 L389.5 538.1 L392.5 537.1 L395.6 535.7 L395.9 535.5 L398.7 533.9 L400.9 532.4"></path><path d="M198.9 0 L197.2 3.2 L196.3 5.1 L195.7 6.3 L194.2 9.5 L193.2 11.5 L192.7 12.6 L191.3 15.8 L190.1 18.3 L189.9 18.9 L188.5 22"></path><path d="M347.2 0 L349.6 2 L351 3.2 L352.7 4.5 L354.9 6.3 L355.7 7 L358.8 9.4 L358.8 9.5 L361.9 11.8 L362.9 12.6 L364.9 14.1 L367.1 15.8 L368 16.4 L371.1 18.6 L371.4 18.9 L374.1 20.8 L375.8 22"></path><path d="M188.5 22.1 L187.2 25.2 L187.1 25.4 L185.8 28.4 L184.5 31.5 L184 32.7 L183.2 34.7 L181.9 37.8 L180.9 40.1 L180.6 40.9 L179.3 44.1 L177.9 47.3 L177.9 47.4 L176.6 50.4 L175.2 53.6 L174.8 54.4 L173.8 56.7 L172.3 59.9 L171.7 61 L170.8 63 L169.2 66.2"></path><path d="M375.8 22.1 L377.2 23 L380.2 25.2 L380.3 25.2 L383.3 27.4 L384.7 28.4 L386.4 29.6 L389 31.5 L389.5 31.8 L392.5 34.1 L393.3 34.7 L395.6 36.4 L397.4 37.8 L398.7 38.8 L401.3 40.9 L401.7 41.3 L404.8 43.9 L405 44.1 L407.9 46.6 L408.6 47.3 L410.9 49.4 L411.9 50.4 L414 52.4 L415.1 53.6 L417.1 55.6 L418.1 56.7 L420.1 58.9 L420.9 59.9 L423.2 62.5 L423.6 63 L426.2 66.2"></path><path d="M148 97.7 L150.3 94.9 L150.6 94.5 L153.2 91.4 L153.3 91.2 L155.6 88.2 L156.4 87.1 L157.9 85.1 L159.5 82.7 L160 81.9 L162.1 78.8 L162.5 78 L164 75.6 L165.6 72.8 L165.8 72.5 L167.5 69.3 L168.7 67.2 L169.2 66.1"></path><path d="M426.2 66.1 L426.3 66.3 L428.6 69.3 L429.3 70.3 L430.8 72.5 L432.4 74.7 L433 75.6 L435.1 78.8 L435.5 79.4 L437 81.9 L438.5 84.5 L438.8 85.1 L440.6 88.2 L441.6 90.2 L442.2 91.4 L443.8 94.5 L444.7 96.4 L445.2 97.7"></path><path d="M102.4 148.1 L104.3 145.6 L104.8 144.9 L107.3 141.8 L107.3 141.7 L109.9 138.6 L110.4 138 L112.6 135.5 L113.5 134.4 L115.3 132.3 L116.5 130.9 L118.2 129.2 L119.6 127.6 L121.1 126 L122.7 124.3 L124 122.9 L125.7 121.1 L127.1 119.7 L128.8 117.9 L130.1 116.6 L131.9 114.8 L133.2 113.4 L134.9 111.6 L136.3 110.3 L138 108.4 L139.3 107.1 L141.1 105.2 L142.3 104 L144.1 101.9 L145.2 100.8 L147.2 98.5 L148 97.6"></path><path d="M445.2 97.6 L446.6 100.8 L447.7 103.4 L448 104 L449.2 107.1 L450.4 110.3 L450.8 111.4 L451.5 113.4 L452.5 116.6 L453.5 119.7 L453.9 121 L454.4 122.9 L455.3 126 L456.1 129.2 L456.8 132.3 L456.9 132.9 L457.5 135.5 L458.1 138.6 L458.7 141.8 L459.2 144.9 L459.7 148.1"></path><path d="M83.5 179.6 L85 176.4 L85.9 174.6 L86.6 173.3 L88.2 170.1 L88.9 168.8 L90 167 L91.8 163.8 L92 163.5 L93.8 160.7 L95.1 158.6 L95.8 157.5 L97.9 154.4 L98.1 154 L100.1 151.2 L101.2 149.7 L102.4 148"></path><path d="M69.6 267.7 L69.2 264.6 L69 261.5 L68.7 258.3 L68.6 255.2 L68.5 252 L68.4 248.9 L68.4 245.7 L68.5 242.6 L68.6 239.4 L68.8 236.3 L69 233.1 L69.4 230 L69.7 226.8 L70.2 223.7 L70.5 221.3 L70.7 220.5 L71.2 217.4 L71.8 214.2 L72.5 211.1 L73.3 207.9 L73.6 206.8 L74.1 204.8 L75 201.6 L76 198.5 L76.7 196.5 L77.1 195.3 L78.2 192.2 L79.4 189 L79.7 188.2 L80.7 185.9 L82 182.7 L82.8 181 L83.5 179.5"></path><path d="M451.4 267.7 L452 264.6 L452.6 261.5 L453.1 258.3 L453.7 255.2 L453.9 254.3 L454.3 252 L454.8 248.9 L455.4 245.7 L455.9 242.6 L456.5 239.4 L456.9 236.6 L457 236.3 L457.5 233.1 L458 230 L458.4 226.8 L458.9 223.7 L459.3 220.5 L459.7 217.4 L460 214.3"></path><path d="M451.4 267.8 L450.9 270.9 L450.8 271.3 L450.3 274"></path><path d="M70.4 274.1 L70.5 275 L70.9 277.2 L71.4 280.3 L72 283.5 L72.6 286.7 L73.3 289.8 L73.6 291.2 L74 293 L74.8 296.1 L75.6 299.2"></path><path d="M450.3 274.1 L449.8 277.2 L449.2 280.3 L448.7 283.5 L448.2 286.7 L447.8 289.8 L447.7 290.2 L447.4 293 L446.9 296.1 L446.6 299.2"></path><path d="M75.6 299.3 L76.4 302.4 L76.7 303.2 L77.3 305.5"></path><path d="M77.3 305.6 L78.2 308.7 L79.2 311.8 L79.7 313.5 L80.2 315 L81.3 318.2 L82.3 321.3 L82.8 322.6 L83.4 324.5 L84.6 327.6 L85.7 330.7"></path><path d="M445.9 305.6 L445.6 308.7 L445.4 311.8 L445.2 315 L445 318.2 L444.9 321.3 L444.8 324.5 L444.8 327.6 L444.8 330.7"></path><path d="M85.7 330.8 L85.9 331.2 L86.9 333.9 L88.1 337"></path><path d="M88.1 337.1 L88.9 339.3 L89.3 340.2 L90.5 343.3 L91.8 346.5 L92 347.1 L93 349.7 L94.3 352.8 L95.1 354.8 L95.5 356 L96.8 359.1 L98 362.2"></path><path d="M444.8 337.1 L444.9 340.2 L445 343.3 L445.1 346.5 L445.3 349.7 L445.5 352.8 L445.6 356 L445.9 359.1 L446.1 362.2"></path><path d="M98 362.3 L98.1 362.5 L99.3 365.4 L100.5 368.5"></path><path d="M100.5 368.6 L101.2 370.3 L101.8 371.7 L103 374.8 L104.2 378 L104.3 378.3 L105.3 381.2 L106.5 384.3 L107.3 386.7 L107.6 387.5 L108.7 390.6 L109.8 393.7"></path><path d="M446.5 368.6 L446.8 371.7 L447 374.8 L447.3 378 L447.5 381.2 L447.7 383.4 L447.8 384.3 L448.1 387.5 L448.3 390.6 L448.5 393.7"></path><path d="M109.8 393.8 L110.4 395.7 L110.8 396.9 L111.8 400"></path><path d="M111.8 400.1 L112.8 403.2 L113.5 405.3 L113.8 406.3 L114.7 409.5 L115.6 412.7 L116.5 415.8 L116.5 415.9 L117.4 419 L118.2 422.1 L119 425.2"></path><path d="M449 400.1 L449.2 403.2 L449.4 406.3 L449.6 409.5 L449.8 412.7 L450 415.8 L450.1 419 L450.2 422.1 L450.3 425.2"></path><path d="M119 425.3 L119.6 427.5 L119.8 428.4 L120.6 431.6 L121.4 434.7 L122.2 437.9 L122.7 440 L122.9 441 L123.6 444.2 L124.4 447.3 L125.1 450.5 L125.7 453.1 L125.8 453.6 L126.6 456.7"></path><path d="M450.3 425.3 L450.4 428.4 L450.5 431.6 L450.5 434.7 L450.6 437.9 L450.6 441 L450.5 444.2 L450.5 447.3 L450.4 450.5 L450.3 453.6 L450.2 456.7"></path><path d="M126.6 456.8 L127.3 459.9 L128.1 463.1 L128.8 466.2 L128.8 466.2 L129.6 469.4 L130.3 472.5 L131.1 475.7 L131.9 478.6 L131.9 478.8 L132.7 482 L133.6 485.1 L134.4 488.2"></path><path d="M450.2 456.8 L450 459.9 L449.8 463.1 L449.6 466.2 L449.4 469.4 L449.1 472.5 L448.7 475.7 L448.4 478.8 L448 482 L447.7 483.7 L447.5 485.1 L447.1 488.2"></path><path d="M134.4 488.3 L134.9 490 L135.3 491.4 L136.2 494.6 L137.2 497.7 L138 500.3 L138.2 500.9 L139.2 504 L140.3 507.2 L141.1 509.5 L141.4 510.3 L142.5 513.5"></path><path d="M447.1 488.3 L446.5 491.4 L446 494.6 L445.4 497.7 L444.7 500.9 L444.7 501 L444 504 L443.2 507.2 L442.4 510.3 L441.6 513.1 L441.5 513.5"></path><path d="M142.5 513.4 L143.7 516.6 L144.1 517.6 L145 519.8 L146.3 522.9 L147.2 524.9 L147.7 526.1 L149.2 529.2 L150.3 531.3 L150.8 532.3"></path><path d="M441.5 513.4 L440.5 516.6 L439.5 519.8 L438.5 522.6 L438.4 522.9 L437.2 526.1 L436 529.2 L435.5 530.4 L434.6 532.3"></path><path d="M150.8 532.4 L152.5 535.5 L153.3 537.1 L154.2 538.7 L156.2 541.8 L156.4 542.2 L158.2 544.9 L159.5 546.7 L160.5 548.1 L162.5 550.8 L162.9 551.3 L165.6 554.3 L165.7 554.4 L168.7 557.4 L168.8 557.6 L171.7 560.1 L172.5 560.7 L174.8 562.4 L177 563.8"></path><path d="M223.1 563.8 L223.9 563.5 L226.9 562 L229.4 560.7 L230 560.4 L233.1 558.7 L235 557.6 L236.1 556.9 L239.2 555 L240.2 554.4 L242.3 553.1 L245.2 551.3 L245.3 551.2 L248.4 549.2 L250.2 548.1 L251.5 547.3 L254.5 545.4 L255.2 544.9 L257.6 543.5 L260.5 541.8 L260.7 541.7 L263.7 540 L266.4 538.7 L266.8 538.5 L269.9 537.1 L272.9 535.8 L273.9 535.5 L276 534.8 L279.1 534 L282.1 533.5 L285.2 533.2 L288.3 533.1 L291.3 533.3 L294.4 533.8 L297.5 534.5 L300.5 535.4 L300.8 535.5 L303.6 536.5 L306.7 537.8 L308.4 538.7 L309.7 539.3 L312.8 540.9 L314.5 541.8 L315.9 542.6 L318.9 544.4 L319.9 544.9 L322 546.2 L325.1 548.1 L325.1 548.1 L328.1 550 L330.1 551.3 L331.2 552 L334.3 553.9 L335.1 554.4 L337.3 555.8 L340.2 557.6 L340.4 557.7 L343.5 559.5 L345.6 560.7 L346.5 561.3 L349.6 562.9 L351.3 563.8"></path><path d="M434.6 532.4 L433.2 535.5 L432.4 537.1 L431.6 538.7 L429.9 541.8 L429.3 542.8 L428 544.9 L426.3 547.8 L426 548.1 L423.8 551.3 L423.2 552.1 L421.4 554.4 L420.1 555.9 L418.6 557.6 L417.1 559.2 L415.5 560.7 L414 562.1 L411.8 563.8"></path><path d="M177 563.9 L177.9 564.4 L180.9 566.1 L183 567 L184 567.4 L187.1 568.5 L190.1 569.2 L193.2 569.8 L196.3 570 L199.3 570.1 L202.4 569.9 L205.5 569.5 L208.5 568.9 L211.6 568.1 L214.7 567.2 L215.2 567 L217.7 566.1 L220.8 564.9 L223.1 563.9"></path><path d="M351.3 563.9 L352.7 564.5 L355.7 566 L357.8 567 L358.8 567.4 L361.9 568.7 L364.9 569.9 L365.7 570.2 L368 570.9 L371.1 571.8 L374.1 572.5 L377.2 573 L379.5 573.3 L380.3 573.4 L383.3 573.6 L386.4 573.5 L389.5 573.3 L389.6 573.3 L392.5 572.9 L395.6 572.2 L398.7 571.2 L401.4 570.2 L401.7 570 L404.8 568.5 L407.4 567 L407.9 566.7 L410.9 564.6 L411.8 563.9"></path><path d="M162.5 22 L162.5 21.9 L163.8 18.9 L165.2 15.8 L165.6 14.8 L166.5 12.6 L167.9 9.5 L168.7 7.6 L169.2 6.3 L170.6 3.2 L171.7 0.4 L171.9 0"></path><path d="M402.3 0 L404.8 2.3 L405.7 3.2 L407.9 5.1 L409.1 6.3 L410.9 8.1 L412.3 9.5 L414 11.1 L415.5 12.6 L417.1 14.2 L418.6 15.8 L420.1 17.4 L421.5 18.9 L423.2 20.7 L424.4 22"></path><path d="M162.5 22.1 L161.1 25.2 L159.7 28.4 L159.5 28.8 L158.2 31.5 L156.8 34.7 L156.4 35.4 L155.3 37.8 L153.7 40.9 L153.3 41.7 L152.1 44.1 L150.5 47.3 L150.3 47.6 L148.7 50.4 L147.2 53.1 L147 53.6 L145.1 56.7 L144.1 58.3 L143.2 59.9 L141.2 63 L141.1 63.2 L139.1 66.2"></path><path d="M424.4 22.1 L426.3 24.2 L427.2 25.2 L429.3 27.8 L429.8 28.4 L432.4 31.5 L432.4 31.5 L434.9 34.7 L435.5 35.4 L437.3 37.8 L438.5 39.5 L439.6 40.9 L441.6 43.8 L441.8 44.1 L443.9 47.3 L444.7 48.4 L446 50.4 L447.7 53.2 L448 53.6 L449.9 56.7 L450.8 58.3 L451.7 59.9 L453.5 63 L453.9 63.7 L455.2 66.2"></path><path d="M114.4 97.7 L116.5 95.1 L117.1 94.5 L119.6 91.6 L119.8 91.4 L122.4 88.2 L122.7 87.9 L125 85.1 L125.7 84.2 L127.6 81.9 L128.8 80.3 L130 78.8 L131.9 76.3 L132.4 75.6 L134.7 72.5 L134.9 72.2 L137 69.3 L138 67.8 L139.1 66.1"></path><path d="M455.2 66.1 L456.8 69.3 L456.9 69.6 L458.3 72.5 L459.8 75.6 L460 76"></path><path d="M74.7 148.1 L76.7 145.1 L76.8 144.9 L78.9 141.8 L79.7 140.5 L81.1 138.6 L82.8 136.2 L83.4 135.5 L85.7 132.3 L85.9 132.1 L88.1 129.2 L88.9 128 L90.5 126 L92 124.1 L93 122.9 L95.1 120.3 L95.6 119.7 L98.1 116.6 L98.2 116.6 L100.8 113.4 L101.2 113 L103.5 110.3 L104.3 109.4 L106.2 107.1 L107.3 105.8 L108.9 104 L110.4 102.3 L111.7 100.8 L113.5 98.7 L114.4 97.6"></path><path d="M58 179.6 L58.3 179 L59.4 176.4 L60.8 173.3 L61.3 172.1 L62.3 170.1 L63.8 167 L64.4 165.9 L65.5 163.8 L67.2 160.7 L67.5 160.1 L69 157.5 L70.5 154.8 L70.8 154.4 L72.7 151.2 L73.6 149.8 L74.7 148"></path><path d="M58 179.5 L56.8 182.7 L55.5 185.9 L55.2 186.8 L54.4 189 L53.3 192.2 L52.3 195.3 L52.1 196 L51.4 198.5 L50.5 201.6 L49.7 204.8 L49.1 207.5 L49 207.9 L48.3 211.1 L47.7 214.2 L47.1 217.4 L46.6 220.5 L46.2 223.7 L46 225.4 L45.8 226.8 L45.5 230 L45.3 233.1 L45.1 236.3 L44.9 239.4 L44.9 242.6 L44.8 245.7 L44.9 248.9 L45 252 L45.1 255.2 L45.3 258.3 L45.6 261.5 L45.9 264.6 L46 265.9 L46.2 267.7"></path><path d="M47 274.1 L47.5 277.2 L48.1 280.3 L48.7 283.5 L49.1 285.4 L49.3 286.7 L50 289.8 L50.7 293 L51.5 296.1 L52.1 298.5 L52.3 299.2"></path><path d="M54 305.6 L55 308.7 L55.2 309.4 L55.9 311.8 L56.9 315 L58 318.2 L58.3 319 L59 321.3 L60.1 324.5 L61.2 327.6 L61.3 327.8 L62.4 330.7"></path><path d="M62.4 330.8 L63.6 333.9 L64.4 336.1 L64.7 337"></path><path d="M64.7 337.1 L65.9 340.2 L67.2 343.3 L67.5 344.1 L68.4 346.5 L69.7 349.7 L70.5 351.8 L70.9 352.8 L72.2 356 L73.5 359.1 L73.6 359.4 L74.7 362.2"></path><path d="M74.7 362.3 L76 365.4 L76.7 367 L77.3 368.5"></path><path d="M77.3 368.6 L78.6 371.7 L79.7 374.6 L79.8 374.8 L81.1 378 L82.3 381.2 L82.8 382.4 L83.5 384.3 L84.7 387.5 L85.9 390.5 L85.9 390.6 L87.1 393.7"></path><path d="M87.1 393.8 L88.2 396.9 L88.9 398.9 L89.3 400"></path><path d="M89.3 400.1 L90.4 403.2 L91.5 406.3 L92 407.8 L92.6 409.5 L93.6 412.7 L94.6 415.8 L95.1 417.3 L95.6 419 L96.6 422.1 L97.5 425.2"></path><path d="M97.5 425.3 L98.1 427.5 L98.4 428.4 L99.3 431.6 L100.2 434.7 L101 437.9 L101.2 438.4 L101.9 441 L102.7 444.2 L103.5 447.3 L104.3 450.2 L104.3 450.5 L105.1 453.6 L105.9 456.7"></path><path d="M105.9 456.8 L106.7 459.9 L107.3 462.5 L107.5 463.1 L108.2 466.2 L109 469.4 L109.8 472.5 L110.4 475.1 L110.5 475.7 L111.3 478.8 L112.1 482 L112.8 485.1 L113.5 487.6 L113.6 488.2"></path><path d="M113.6 488.3 L114.4 491.4 L115.2 494.6 L116.1 497.7 L116.5 499.5 L116.9 500.9 L117.8 504 L118.6 507.2 L119.5 510.3 L119.6 510.6 L120.4 513.5"></path><path d="M120.4 513.4 L121.4 516.6 L122.3 519.8 L122.7 520.8 L123.3 522.9 L124.3 526.1 L125.4 529.2 L125.7 530.2 L126.5 532.3"></path><path d="M457.4 532.3 L458.3 529.2 L459.1 526.1 L459.8 522.9 L460 522.2"></path><path d="M126.5 532.4 L127.6 535.5 L128.8 538.7 L128.8 538.8 L130 541.8 L131.2 544.9 L131.9 546.5 L132.5 548.1 L133.9 551.3 L134.9 553.6 L135.3 554.4 L136.8 557.6 L138 560 L138.4 560.7 L140 563.8"></path><path d="M445.4 563.8 L446.9 560.7 L447.7 558.9 L448.4 557.6 L449.7 554.4 L450.8 551.8 L451 551.3 L452.2 548.1 L453.4 544.9 L453.9 543.6 L454.5 541.8 L455.5 538.7 L456.5 535.5 L456.9 533.9 L457.4 532.4"></path><path d="M140 563.9 L141.1 565.8 L141.7 567 L143.5 570.2 L144.1 571.1 L145.5 573.3 L147.2 575.9 L147.5 576.4 L149.8 579.6 L150.3 580.3 L152.2 582.8 L153.3 584.2 L154.8 585.9 L156.4 587.8 L157.6 589.1 L159.5 590.9 L160.8 592.2 L162.5 593.7 L164.5 595.3"></path><path d="M421.4 595.3 L423.2 593.9 L425 592.2 L426.3 591 L428.2 589.1 L429.3 587.8 L431 585.9 L432.4 584.2 L433.5 582.8 L435.5 580.2 L435.9 579.6 L438.1 576.4 L438.5 575.8 L440.1 573.3 L441.6 570.8 L442 570.2 L443.7 567 L444.7 565.2 L445.4 563.9"></path><path d="M229.8 595.3 L230 595.3 L233.1 593.6 L235.6 592.2 L236.1 591.9 L239.2 590.1 L241.1 589.1 L242.3 588.4 L245.3 586.6 L246.5 585.9 L248.4 584.8 L251.5 583 L252 582.8 L254.5 581.3 L257.6 579.6 L257.7 579.6 L260.7 578 L263.7 576.5 L263.9 576.4 L266.8 575.2 L269.9 573.9 L271.6 573.3 L272.9 572.8 L276 571.9 L279.1 571.2 L282.1 570.6 L285.2 570.3 L287.5 570.2 L288.3 570.1 L289.8 570.2 L291.3 570.2 L294.4 570.5 L297.5 570.9 L300.5 571.6 L303.6 572.4 L306.3 573.3 L306.7 573.4 L309.7 574.6 L312.8 575.9 L314.1 576.4 L315.9 577.3 L318.9 578.8 L320.6 579.6 L322 580.3 L325.1 582 L326.4 582.8 L328.1 583.7 L331.2 585.4 L332.1 585.9 L334.3 587.1 L337.3 588.9 L337.6 589.1 L340.4 590.6 L343.2 592.2 L343.5 592.3 L346.5 594 L349.1 595.3"></path><path d="M164.5 595.4 L165.6 596.2 L168.7 598.4 L168.8 598.5 L171.7 600.3 L174.3 601.7 L174.8 601.9 L177.9 603.2 L180.9 604.3 L182.8 604.8 L184 605.1 L187.1 605.7 L190.1 606.1 L193.2 606.2 L196.3 606.2 L199.3 605.9 L202.4 605.5 L205.5 604.9 L206 604.8 L208.5 604.2 L211.6 603.3 L214.7 602.2 L216.1 601.7 L217.7 601 L220.8 599.7 L223.5 598.5 L223.9 598.3 L226.9 596.8 L229.8 595.4"></path><path d="M349.1 595.4 L349.6 595.6 L352.7 597.2 L355.4 598.5 L355.7 598.7 L358.8 600.1 L361.9 601.4 L362.5 601.7 L364.9 602.6 L368 603.7 L371.1 604.7 L371.5 604.8 L374.1 605.5 L377.2 606.2 L380.3 606.8 L383.3 607.2 L386.4 607.4 L389.5 607.5 L392.5 607.3 L395.6 607 L398.7 606.5 L401.7 605.8 L404.8 604.8 L404.9 604.8 L407.9 603.7 L410.9 602.2 L412 601.7 L414 600.6 L417.1 598.6 L417.2 598.5 L420.1 596.4 L421.4 595.4"></path><path d="M146.7 0 L145.3 3.2 L144.1 5.7 L143.9 6.3 L142.4 9.5 L141.1 12.4 L141 12.6 L139.4 15.8 L138 18.7 L137.9 18.9 L136.3 22"></path><path d="M440.9 0 L441.6 0.9 L443.3 3.2 L444.7 5 L445.6 6.3 L447.7 9.2 L447.9 9.5 L450.2 12.6 L450.8 13.5 L452.4 15.8 L453.9 18 L454.5 18.9 L456.6 22"></path><path d="M108.5 66.2 L110.4 63.7 L110.9 63 L113.2 59.9 L113.5 59.5 L115.5 56.7 L116.5 55.2 L117.7 53.6 L119.6 50.8 L119.8 50.4 L121.9 47.3 L122.7 46.1 L123.9 44.1 L125.7 41.2 L125.9 40.9 L127.7 37.8 L128.8 36 L129.6 34.7 L131.3 31.5 L131.9 30.5 L133 28.4 L134.7 25.2 L134.9 24.8 L136.3 22.1"></path><path d="M456.6 22.1 L456.9 22.6 L458.6 25.2 L460 27.5"></path><path d="M82.6 97.7 L82.8 97.5 L85.3 94.5 L85.9 93.8 L88 91.4 L88.9 90.2 L90.6 88.2 L92 86.6 L93.3 85.1 L95.1 82.9 L95.9 81.9 L98.1 79.2 L98.5 78.8 L101.1 75.6 L101.2 75.4 L103.6 72.5 L104.3 71.6 L106.1 69.3 L107.3 67.7 L108.5 66.1"></path><path d="M82.6 97.6 L80 100.8 L79.7 101.1 L77.4 104 L76.7 104.8 L74.7 107.1 L73.6 108.5 L72.2 110.3 L70.5 112.3 L69.6 113.4 L67.5 116.1 L67.1 116.6 L64.6 119.7 L64.4 120 L62.2 122.9 L61.3 124 L59.8 126 L58.3 128.1 L57.5 129.2 L55.2 132.3 L55.2 132.4 L53 135.5 L52.1 136.8 L50.9 138.6 L49.1 141.4 L48.8 141.8 L46.8 144.9 L46 146.2 L44.9 148.1"></path><path d="M44.9 148 L43 151.2 L42.9 151.3 L41.2 154.4 L39.9 156.7 L39.4 157.5 L37.8 160.7 L36.8 162.6 L36.2 163.8 L34.7 167 L33.7 168.9 L33.2 170.1 L31.8 173.3 L30.7 176 L30.5 176.4 L29.2 179.6"></path><path d="M29.2 179.5 L28.1 182.7 L27.6 184 L26.9 185.9 L25.9 189 L24.9 192.2 L24.5 193.5 L24 195.3 L23.2 198.5 L22.4 201.6 L21.7 204.8 L21.5 205.6 L21 207.9 L20.4 211.1 L19.8 214.2 L19.4 217.4 L18.9 220.5 L18.6 223.7 L18.4 225.5 L18.3 226.8 L18 230 L17.8 233.1 L17.7 236.3 L17.6 239.4 L17.6 242.6 L17.6 245.7 L17.7 248.9 L17.8 252 L18 255.2 L18.2 258.3 L18.4 260.8 L18.5 261.5 L18.8 264.6 L19.1 267.7"></path><path d="M20 274.1 L20.6 277.2 L21.1 280.3 L21.5 282.2 L21.7 283.5 L22.4 286.7 L23.1 289.8 L23.8 293 L24.5 295.8 L24.6 296.1 L25.4 299.2"></path><path d="M27.2 305.6 L27.6 306.9 L28.1 308.7 L29.1 311.8 L30.2 315 L30.7 316.5 L31.2 318.2 L32.3 321.3 L33.4 324.5 L33.7 325.3 L34.6 327.6 L35.8 330.7"></path><path d="M35.8 330.8 L36.8 333.5 L37 333.9 L38.2 337"></path><path d="M38.2 337.1 L39.5 340.2 L39.9 341.2 L40.7 343.3 L42 346.5 L42.9 348.6 L43.4 349.7 L44.7 352.8 L46 355.9 L46 356 L47.4 359.1 L48.8 362.2"></path><path d="M48.8 362.3 L49.1 363 L50.1 365.4 L51.5 368.5"></path><path d="M51.5 368.6 L52.1 370 L52.9 371.7 L54.2 374.8 L55.2 377.1 L55.6 378 L56.9 381.2 L58.3 384.2 L58.3 384.3 L59.6 387.5 L61 390.6 L61.3 391.5 L62.3 393.7"></path><path d="M62.3 393.8 L63.6 396.9 L64.4 399 L64.8 400"></path><path d="M64.8 400.1 L66.1 403.2 L67.3 406.3 L67.5 406.7 L68.5 409.5 L69.7 412.7 L70.5 414.8 L70.9 415.8 L72 419 L73.2 422.1 L73.6 423.3 L74.3 425.2"></path><path d="M74.3 425.3 L75.4 428.4 L76.4 431.6 L76.7 432.3 L77.4 434.7 L78.5 437.9 L79.5 441 L79.7 441.9 L80.4 444.2 L81.4 447.3 L82.3 450.5 L82.8 452.1 L83.2 453.6 L84.1 456.7"></path><path d="M84.1 456.8 L85 459.9 L85.9 462.9 L85.9 463.1 L86.8 466.2 L87.6 469.4 L88.5 472.5 L88.9 474.2 L89.3 475.7 L90.2 478.8 L91 482 L91.8 485.1 L92 485.8 L92.6 488.2"></path><path d="M92.6 488.3 L93.5 491.4 L94.3 494.6 L95.1 497.5 L95.1 497.7 L95.9 500.9 L96.8 504 L97.6 507.2 L98.1 509 L98.5 510.3 L99.3 513.5"></path><path d="M99.3 513.4 L100.2 516.6 L101.1 519.8 L101.2 520.2 L102 522.9 L102.9 526.1 L103.8 529.2 L104.3 530.8 L104.7 532.3"></path><path d="M104.7 532.4 L105.7 535.5 L106.7 538.7 L107.3 540.7 L107.7 541.8 L108.7 544.9 L109.7 548.1 L110.4 550 L110.8 551.3 L111.9 554.4 L113.1 557.6 L113.5 558.7 L114.2 560.7 L115.4 563.8"></path><path d="M115.4 563.9 L116.5 566.7 L116.7 567 L117.9 570.2 L119.2 573.3 L119.6 574.1 L120.6 576.4 L122 579.6 L122.7 581 L123.5 582.8 L125 585.9 L125.7 587.4 L126.6 589.1 L128.2 592.2 L128.8 593.3 L129.9 595.3"></path><path d="M455.2 595.3 L456.9 592.3 L457 592.2 L458.6 589.1 L460 586.3"></path><path d="M129.9 595.4 L131.7 598.5 L131.9 598.8 L133.6 601.7 L134.9 603.8 L135.6 604.8 L137.7 607.9 L138 608.4 L139.9 611.1 L141.1 612.7 L142.3 614.3 L144.1 616.6 L144.8 617.4 L147.2 620.2 L147.5 620.6 L150.3 623.5 L150.5 623.7 L153.3 626.5 L153.7 626.8"></path><path d="M430 626.8 L432.4 624.8 L433.6 623.7 L435.5 621.9 L436.8 620.6 L438.5 618.7 L439.7 617.4 L441.6 615.3 L442.4 614.3 L444.7 611.4 L444.9 611.1 L447.2 607.9 L447.7 607.3 L449.4 604.8 L450.8 602.7 L451.5 601.7 L453.4 598.5 L453.9 597.7 L455.2 595.4"></path><path d="M237.1 626.8 L239.2 625.7 L242.3 624 L242.9 623.7 L245.3 622.4 L248.4 620.7 L248.7 620.6 L251.5 619.1 L254.5 617.5 L254.8 617.4 L257.6 616 L260.7 614.6 L261.4 614.3 L263.7 613.2 L266.8 612 L269.2 611.1 L269.9 610.8 L272.9 609.8 L276 609 L279.1 608.3 L281 607.9 L282.1 607.7 L285.2 607.4 L288.3 607.2 L291.3 607.2 L294.4 607.3 L297.5 607.6 L299.5 607.9 L300.5 608.1 L303.6 608.8 L306.7 609.6 L309.7 610.5 L311.5 611.1 L312.8 611.5 L315.9 612.7 L318.9 614 L319.6 614.3 L322 615.3 L325.1 616.8 L326.4 617.4 L328.1 618.2 L331.2 619.8 L332.7 620.6 L334.3 621.3 L337.3 622.9 L338.8 623.7 L340.4 624.5 L343.5 626.1 L345 626.8"></path><path d="M231.1 630 L233.1 629 L236.1 627.4 L237.1 626.9"></path><path d="M345 626.9 L346.5 627.6 L349.6 629.2 L351.3 630"></path><path d="M426 630 L426.3 629.8 L429.3 627.5 L430 626.9"></path><path d="M121.3 0 L119.7 3.2 L119.6 3.4 L118.1 6.3 L116.5 9.2 L116.4 9.5 L114.6 12.6 L113.5 14.7 L112.8 15.8 L111 18.9 L110.4 19.9 L109.1 22"></path><path d="M76.3 66.2 L76.7 65.7 L79 63 L79.7 62.1 L81.6 59.9 L82.8 58.5 L84.2 56.7 L85.9 54.7 L86.8 53.6 L88.9 50.9 L89.3 50.4 L91.8 47.3 L92 46.9 L94.1 44.1 L95.1 42.9 L96.5 40.9 L98.1 38.6 L98.7 37.8 L100.9 34.7 L101.2 34.3 L103.1 31.5 L104.3 29.7 L105.1 28.4 L107.1 25.2 L107.3 24.9 L109.1 22.1"></path><path d="M48 97.7 L49.1 96.5 L50.9 94.5 L52.1 93.1 L53.7 91.4 L55.2 89.7 L56.5 88.2 L58.3 86.3 L59.4 85.1 L61.3 82.9 L62.2 81.9 L64.4 79.5 L65.1 78.8 L67.5 76.1 L67.9 75.6 L70.5 72.7 L70.7 72.5 L73.5 69.3 L73.6 69.2 L76.3 66.1"></path><path d="M10.7 148.1 L12.3 145.3 L12.5 144.9 L14.3 141.8 L15.3 140.1 L16.3 138.6 L18.3 135.5 L18.4 135.3 L20.4 132.3 L21.5 130.8 L22.6 129.2 L24.5 126.4 L24.8 126 L27.2 122.9 L27.6 122.3 L29.6 119.7 L30.7 118.3 L32 116.6 L33.7 114.4 L34.6 113.4 L36.8 110.7 L37.2 110.3 L39.8 107.1 L39.9 107.1 L42.5 104 L42.9 103.5 L45.3 100.8 L46 100 L48 97.6"></path><path d="M0 171.2 L0.4 170.1 L1.7 167 L3 163.8 L3.1 163.6 L4.4 160.7 L5.8 157.5 L6.1 156.9 L7.4 154.4 L9 151.2 L9.2 150.9 L10.7 148"></path><path d="M0 316 L0.7 318.2 L1.7 321.3 L2.8 324.5 L3.1 325.2 L3.9 327.6 L5.1 330.7"></path><path d="M5.1 330.8 L6.1 333.5 L6.3 333.9 L7.5 337"></path><path d="M7.5 337.1 L8.7 340.2 L9.2 341.3 L10 343.3 L11.3 346.5 L12.3 348.7 L12.7 349.7 L14.1 352.8 L15.3 355.7 L15.4 356 L16.9 359.1 L18.3 362.2"></path><path d="M18.3 362.3 L18.4 362.5 L19.7 365.4 L21.2 368.5"></path><path d="M21.2 368.6 L21.5 369.1 L22.7 371.7 L24.2 374.8 L24.5 375.6 L25.7 378 L27.2 381.2 L27.6 382 L28.7 384.3 L30.2 387.5 L30.7 388.4 L31.7 390.6 L33.2 393.7"></path><path d="M33.2 393.8 L33.7 394.8 L34.7 396.9 L36.2 400"></path><path d="M36.2 400.1 L36.8 401.3 L37.7 403.2 L39.1 406.3 L39.9 407.9 L40.6 409.5 L42 412.7 L42.9 414.7 L43.4 415.8 L44.8 419 L46 421.7 L46.2 422.1 L47.5 425.2"></path><path d="M47.5 425.3 L48.8 428.4 L49.1 429 L50.1 431.6 L51.4 434.7 L52.1 436.5 L52.6 437.9 L53.9 441 L55.1 444.2 L55.2 444.5 L56.2 447.3 L57.4 450.5 L58.3 452.8 L58.5 453.6 L59.7 456.7"></path><path d="M59.7 456.8 L60.7 459.9 L61.3 461.6 L61.8 463.1 L62.9 466.2 L63.9 469.4 L64.4 470.8 L64.9 472.5 L65.9 475.7 L66.9 478.8 L67.5 480.5 L67.9 482 L68.9 485.1 L69.8 488.2"></path><path d="M69.8 488.3 L70.5 490.6 L70.8 491.4 L71.7 494.6 L72.6 497.7 L73.6 500.9 L73.6 501 L74.5 504 L75.4 507.2 L76.3 510.3 L76.7 511.5 L77.2 513.5"></path><path d="M77.2 513.4 L78.1 516.6 L79.1 519.8 L79.7 522 L80 522.9 L80.9 526.1 L81.8 529.2 L82.8 532.3"></path><path d="M82.8 532.4 L82.8 532.4 L83.7 535.5 L84.7 538.7 L85.6 541.8 L85.9 542.5 L86.6 544.9 L87.6 548.1 L88.6 551.3 L88.9 552.3 L89.6 554.4 L90.7 557.6 L91.7 560.7 L92 561.6 L92.8 563.8"></path><path d="M92.8 563.9 L93.8 567 L95 570.2 L95.1 570.5 L96.1 573.3 L97.2 576.4 L98.1 578.9 L98.4 579.6 L99.6 582.8 L100.8 585.9 L101.2 586.8 L102.1 589.1 L103.4 592.2 L104.3 594.3 L104.7 595.3"></path><path d="M104.7 595.4 L106.1 598.5 L107.3 601.3 L107.5 601.7 L108.9 604.8 L110.4 607.9 L110.4 608 L111.9 611.1 L113.5 614.2 L113.5 614.3 L115.1 617.4 L116.5 620.1 L116.8 620.6 L118.5 623.7 L119.6 625.6 L120.4 626.8"></path><path d="M94 0 L92 3.2 L90 6.3 L88.9 7.9 L87.9 9.5 L85.9 12.3 L85.7 12.6 L83.4 15.8 L82.8 16.6 L81.1 18.9 L79.7 20.7 L78.7 22"></path><path d="M37.7 66.2 L39.9 64.1 L41 63 L42.9 61.1 L44.2 59.9 L46 58.1 L47.4 56.7 L49.1 55.1 L50.6 53.6 L52.1 52 L53.7 50.4 L55.2 48.8 L56.7 47.3 L58.3 45.6 L59.7 44.1 L61.3 42.4 L62.7 40.9 L64.4 39 L65.5 37.8 L67.5 35.6 L68.3 34.7 L70.5 32.1 L71 31.5 L73.6 28.4 L76.2 25.2 L76.7 24.6 L78.7 22.1"></path><path d="M7.2 97.7 L9.2 95.3 L9.9 94.5 L12.3 91.9 L12.8 91.4 L15.3 88.6 L15.7 88.2 L18.4 85.3 L18.7 85.1 L21.5 82.2 L21.7 81.9 L24.5 79.1 L24.9 78.8 L27.6 76 L28.1 75.6 L30.7 73 L31.3 72.5 L33.7 70 L34.5 69.3 L36.8 67.1 L37.7 66.1"></path><path d="M0 106.6 L2 104 L3.1 102.6 L4.6 100.8 L6.1 98.9 L7.2 97.6"></path><path d="M2.5 400.1 L3.1 401.2 L4.1 403.2 L5.6 406.3 L6.1 407.3 L7.2 409.5 L8.8 412.7 L9.2 413.4 L10.4 415.8 L12 419 L12.3 419.5 L13.6 422.1 L15.1 425.2"></path><path d="M15.1 425.3 L15.3 425.6 L16.7 428.4 L18.3 431.6 L18.4 431.8 L19.8 434.7 L21.4 437.9 L21.5 438.1 L22.9 441 L24.4 444.2 L24.5 444.5 L25.8 447.3 L27.3 450.5 L27.6 451.1 L28.7 453.6 L30.1 456.7"></path><path d="M30.1 456.8 L30.7 457.9 L31.5 459.9 L32.9 463.1 L33.7 465 L34.3 466.2 L35.6 469.4 L36.8 472.3 L36.9 472.5 L38.2 475.7 L39.4 478.8 L39.9 479.9 L40.7 482 L41.9 485.1 L42.9 487.8 L43.1 488.2"></path><path d="M43.1 488.3 L44.3 491.4 L45.4 494.6 L46 496.1 L46.6 497.7 L47.7 500.9 L48.8 504 L49.1 504.6 L50 507.2 L51.1 510.3 L52.1 513.4 L52.2 513.5"></path><path d="M52.2 513.4 L53.2 516.6 L54.3 519.8 L55.2 522.4 L55.4 522.9 L56.4 526.1 L57.5 529.2 L58.3 531.5 L58.5 532.3"></path><path d="M58.5 532.4 L59.6 535.5 L60.6 538.7 L61.3 540.7 L61.7 541.8 L62.7 544.9 L63.8 548.1 L64.4 549.9 L64.9 551.3 L65.9 554.4 L67 557.6 L67.5 558.9 L68.1 560.7 L69.2 563.8"></path><path d="M69.2 563.9 L70.3 567 L70.5 567.8 L71.4 570.2 L72.5 573.3 L73.6 576.4 L73.6 576.4 L74.7 579.6 L75.9 582.8 L76.7 584.8 L77.1 585.9 L78.2 589.1 L79.4 592.2 L79.7 592.9 L80.7 595.3"></path><path d="M80.7 595.4 L81.9 598.5 L82.8 600.7 L83.2 601.7 L84.4 604.8 L85.8 607.9 L85.9 608.2 L87.1 611.1 L88.4 614.3 L88.9 615.4 L89.8 617.4 L91.2 620.6 L92 622.3 L92.7 623.7 L94.1 626.8"></path><path d="M61.3 0 L58.5 3.2 L58.3 3.4 L55.6 6.3 L55.2 6.8 L52.7 9.5 L52.1 10 L49.6 12.6 L49.1 13.2 L46.4 15.8 L46 16.2 L43.2 18.9 L42.9 19.1 L39.9 22 L39.8 22"></path><path d="M0 57.6 L1 56.7 L3.1 54.7 L4.3 53.6 L6.1 51.8 L7.7 50.4 L9.2 49 L11.2 47.3 L12.3 46.3 L14.8 44.1 L15.3 43.6 L18.4 40.9 L18.4 40.9 L21.5 38.3 L22 37.8 L24.5 35.6 L25.7 34.7 L27.6 33 L29.3 31.5 L30.7 30.3 L32.9 28.4 L33.7 27.6 L36.4 25.2 L36.8 24.8 L39.8 22.1"></path><path d="M0 466.7 L1.3 469.4 L2.8 472.5 L3.1 473 L4.3 475.7 L5.8 478.8 L6.1 479.4 L7.3 482 L8.8 485.1 L9.2 485.9 L10.3 488.2"></path><path d="M10.3 488.3 L11.8 491.4 L12.3 492.5 L13.2 494.6 L14.7 497.7 L15.3 499.2 L16.1 500.9 L17.5 504 L18.4 506 L18.9 507.2 L20.3 510.3 L21.5 513 L21.7 513.5"></path><path d="M21.7 513.4 L23 516.6 L24.3 519.8 L24.5 520.2 L25.7 522.9 L27 526.1 L27.6 527.5 L28.3 529.2 L29.6 532.3"></path><path d="M29.6 532.4 L30.7 535 L30.9 535.5 L32.1 538.7 L33.4 541.8 L33.7 542.6 L34.7 544.9 L35.9 548.1 L36.8 550.3 L37.2 551.3 L38.4 554.4 L39.7 557.6 L39.9 558 L40.9 560.7 L42.1 563.8"></path><path d="M42.1 563.9 L42.9 565.8 L43.4 567 L44.6 570.2 L45.9 573.3 L46 573.6 L47.1 576.4 L48.3 579.6 L49.1 581.4 L49.6 582.8 L50.9 585.9 L52.1 589.1 L52.1 589.1 L53.4 592.2 L54.7 595.3"></path><path d="M54.7 595.4 L55.2 596.7 L55.9 598.5 L57.2 601.7 L58.3 604.1 L58.6 604.8 L59.9 607.9 L61.2 611.1 L61.3 611.4 L62.5 614.3 L63.9 617.4 L64.4 618.5 L65.3 620.6 L66.7 623.7 L67.5 625.5 L68.1 626.8"></path><path d="M0 12.5 L3.1 9.9 L3.6 9.5 L6.1 7.4 L7.5 6.3 L9.2 4.9 L11.3 3.2 L12.3 2.4 L15.2 0"></path><path d="M0 543 L0.9 544.9 L2.3 548.1 L3.1 549.7 L3.8 551.3 L5.2 554.4 L6.1 556.4 L6.7 557.6 L8.1 560.7 L9.2 563.1 L9.5 563.8"></path><path d="M9.5 563.9 L11 567 L12.3 569.8 L12.4 570.2 L13.9 573.3 L15.3 576.4 L15.3 576.5 L16.7 579.6 L18.2 582.8 L18.4 583.2 L19.6 585.9 L21.1 589.1 L21.5 589.9 L22.5 592.2 L24 595.3"></path><path d="M24 595.4 L24.5 596.5 L25.4 598.5 L26.9 601.7 L27.6 603.2 L28.4 604.8 L29.8 607.9 L30.7 609.7 L31.3 611.1 L32.8 614.3 L33.7 616.2 L34.3 617.4 L35.8 620.6 L36.8 622.7 L37.3 623.7 L38.8 626.8"></path><path d="M0 618.6 L1 620.6 L2.6 623.7 L3.1 624.6 L4.2 626.8"></path></g>
</svg>