<svg xmlns="http://www.w3.org/2000/svg" width="512" height="512" viewBox="0 0 512 512"><rect width="512" height="512" fill="#e7eef1"></rect><g fill="none" stroke="#0f78ab" stroke-width="1" opacity="0.22"><rect x="96" y="96" width="320" height="320"></rect><circle cx="256" cy="206" r="50"></circle><circle cx="256" cy="306" r="50"></circle><line x1="256" y1="96" x2="256" y2="416"></line><line x1="96" y1="256" x2="416" y2="256"></line><line x1="150" y1="128" x2="362" y2="128"></line><line x1="150" y1="384" x2="362" y2="384"></line></g><g fill="none" stroke="#0f78ab" stroke-width="2.8" stroke-linecap="round" stroke-linejoin="round"><path d="M150 384 L150 128 L256 256 L362 128 L362 384"></path><path d="M274.73 159.64 L270.68 158.2 L266.52 157.12 L262.28 156.4 L258 156.04 L253.7 156.05 L249.42 156.43 L245.19 157.18 L241.04 158.29 L236.99 159.75 L233.09 161.56 L229.36 163.69 L225.82 166.13 L222.51 168.87 L219.45 171.88 L216.65 175.15 L214.15 178.64 L211.95 182.34 L210.08 186.21 L208.55 190.23 L207.37 194.36 L206.55 198.58 L206.1 202.85 L206.01 207.15 L206.3 211.44 L206.95 215.69 L207.96 219.86 L209.33 223.94 L211.04 227.88 L213.09 231.66 L215.45 235.25 L218.11 238.63 L221.05 241.76 L224.25 244.63 L227.69 247.21 L231.33 249.49 L235.16 251.45 L239.14 253.07 L243.24 254.35 L247.44 255.26 L251.71 255.82 L256 256 L260.29 256.18 L264.56 256.74 L268.76 257.65 L272.86 258.93 L276.84 260.55 L280.67 262.51 L284.31 264.79 L287.75 267.37 L290.95 270.24 L293.89 273.37 L296.55 276.75 L298.91 280.34 L300.96 284.12 L302.67 288.06 L304.04 292.14 L305.05 296.31 L305.7 300.56 L305.99 304.85 L305.9 309.15 L305.45 313.42 L304.63 317.64 L303.45 321.77 L301.92 325.79 L300.05 329.66 L297.85 333.36 L295.35 336.85 L292.55 340.12 L289.49 343.13 L286.18 345.87 L282.64 348.31 L278.91 350.44 L275.01 352.25 L270.96 353.71 L266.81 354.82 L262.58 355.57 L258.3 355.95 L254 355.96 L249.72 355.6 L245.48 354.88 L241.32 353.8 L237.27 352.36"></path></g><path d="M50 34 L34 34 L34 50" fill="none" stroke="#0f78ab" stroke-width="1.6"></path><path d="M462 34 L478 34 L478 50" fill="none" stroke="#0f78ab" stroke-width="1.6"></path><path d="M50 478 L34 478 L34 462" fill="none" stroke="#0f78ab" stroke-width="1.6"></path><path d="M462 478 L478 478 L478 462" fill="none" stroke="#0f78ab" stroke-width="1.6"></path></svg>